<?xml version="1.0" encoding="UTF-8" standalone="no"?>
<svg
   id="_图层_1"
   data-name="图层 1"
   viewBox="0 0 437.93 82.45"
   version="1.1"
   sodipodi:docname="RNAVerse.svg"
   inkscape:version="1.4.2 (f4327f4, 2025-05-13)"
   xmlns:inkscape="http://www.inkscape.org/namespaces/inkscape"
   xmlns:sodipodi="http://sodipodi.sourceforge.net/DTD/sodipodi-0.dtd"
   xmlns:xlink="http://www.w3.org/1999/xlink"
   xmlns="http://www.w3.org/2000/svg"
   xmlns:svg="http://www.w3.org/2000/svg">
  <sodipodi:namedview
     id="namedview14"
     pagecolor="#ffffff"
     bordercolor="#000000"
     borderopacity="0.25"
     inkscape:showpageshadow="2"
     inkscape:pageopacity="0.0"
     inkscape:pagecheckerboard="0"
     inkscape:deskcolor="#d1d1d1"
     inkscape:zoom="3.9010116"
     inkscape:cx="211.48361"
     inkscape:cy="19.09761"
     inkscape:window-width="2560"
     inkscape:window-height="1377"
     inkscape:window-x="-8"
     inkscape:window-y="115"
     inkscape:window-maximized="1"
     inkscape:current-layer="_图层_1" />
  <defs
     id="defs2">
    <style
       id="style1">
      .cls-1 {
        fill: url(#_未命名的渐变_13-7);
      }

      .cls-2 {
        fill: url(#_未命名的渐变_13-3);
      }

      .cls-3 {
        fill: url(#_未命名的渐变_13-13);
      }

      .cls-4 {
        fill: url(#_未命名的渐变_13-2);
      }

      .cls-5 {
        fill: url(#_未命名的渐变_13-11);
      }

      .cls-6 {
        fill: url(#_未命名的渐变_13);
      }

      .cls-7 {
        fill: url(#_未命名的渐变_13-10);
      }

      .cls-8 {
        fill: url(#_未命名的渐变_13-5);
      }

      .cls-9 {
        fill: url(#_未命名的渐变_13-9);
      }

      .cls-10 {
        fill: url(#_未命名的渐变_13-4);
      }

      .cls-11 {
        fill: url(#_未命名的渐变_13-6);
      }

      .cls-12 {
        fill: url(#_未命名的渐变_13-12);
      }

      .cls-13 {
        fill: url(#_未命名的渐变_13-8);
      }
    </style>
    <linearGradient
       id="_未命名的渐变_13"
       data-name="未命名的渐变 13"
       x1="116.87"
       y1="41.67"
       x2="417.5"
       y2="45.86"
       gradientUnits="userSpaceOnUse">
      <stop
         offset="0"
         stop-color="#03b2f1"
         id="stop1" />
      <stop
         offset="1"
         stop-color="#f87904"
         id="stop2" />
    </linearGradient>
    <linearGradient
       id="_未命名的渐变_13-2"
       data-name="未命名的渐变 13"
       x1="116.88"
       y1="40.86"
       x2="417.51"
       y2="45.05"
       xlink:href="#_未命名的渐变_13" />
    <linearGradient
       id="_未命名的渐变_13-3"
       data-name="未命名的渐变 13"
       x1="116.89"
       y1="40.25"
       x2="417.52"
       y2="44.44"
       xlink:href="#_未命名的渐变_13" />
    <linearGradient
       id="_未命名的渐变_13-4"
       data-name="未命名的渐变 13"
       x1="116.9"
       y1="39.39"
       x2="417.53"
       y2="43.58"
       xlink:href="#_未命名的渐变_13" />
    <linearGradient
       id="_未命名的渐变_13-5"
       data-name="未命名的渐变 13"
       x1="116.83"
       y1="44.36"
       x2="417.46"
       y2="48.55"
       xlink:href="#_未命名的渐变_13" />
    <linearGradient
       id="_未命名的渐变_13-6"
       data-name="未命名的渐变 13"
       x1="116.84"
       y1="43.81"
       x2="417.47"
       y2="48"
       xlink:href="#_未命名的渐变_13" />
    <linearGradient
       id="_未命名的渐变_13-7"
       data-name="未命名的渐变 13"
       x1="116.85"
       y1="43.37"
       x2="417.47"
       y2="47.56"
       xlink:href="#_未命名的渐变_13" />
    <linearGradient
       id="_未命名的渐变_13-8"
       data-name="未命名的渐变 13"
       x1="116.85"
       y1="42.82"
       x2="417.48"
       y2="47.01"
       xlink:href="#_未命名的渐变_13" />
    <linearGradient
       id="_未命名的渐变_13-9"
       data-name="未命名的渐变 13"
       x1="19.59"
       y1="40.98"
       x2="91.35"
       y2="40.98"
       xlink:href="#_未命名的渐变_13" />
    <linearGradient
       id="_未命名的渐变_13-10"
       data-name="未命名的渐变 13"
       x1="0"
       y1="59.07"
       x2="63.88"
       y2="59.07"
       xlink:href="#_未命名的渐变_13" />
    <linearGradient
       id="_未命名的渐变_13-11"
       data-name="未命名的渐变 13"
       x1="55.44"
       y1="19.04"
       x2="88.67"
       y2="19.04"
       xlink:href="#_未命名的渐变_13" />
    <linearGradient
       id="_未命名的渐变_13-12"
       data-name="未命名的渐变 13"
       x1="10.82"
       y1="27.05"
       x2="72.87"
       y2="27.05"
       xlink:href="#_未命名的渐变_13" />
    <linearGradient
       id="_未命名的渐变_13-13"
       data-name="未命名的渐变 13"
       x1="19.76"
       y1="61.66"
       x2="93.27"
       y2="61.66"
       xlink:href="#_未命名的渐变_13" />
    <linearGradient
       id="_未命名的渐变_13-2-8"
       data-name="未命名的渐变 13"
       x1="116.88"
       y1="40.860001"
       x2="417.51001"
       y2="45.049999"
       xlink:href="#_%E6%9C%AA%E5%91%BD%E5%90%8D%E7%9A%84%E6%B8%90%E5%8F%98_13" />
    <linearGradient
       id="_未命名的渐变_13-3-8"
       data-name="未命名的渐变 13"
       x1="116.89"
       y1="40.25"
       x2="417.51999"
       y2="44.439999"
       xlink:href="#_%E6%9C%AA%E5%91%BD%E5%90%8D%E7%9A%84%E6%B8%90%E5%8F%98_13" />
    <linearGradient
       id="_未命名的渐变_13-4-2"
       data-name="未命名的渐变 13"
       x1="116.9"
       y1="39.389999"
       x2="417.53"
       y2="43.580002"
       xlink:href="#_%E6%9C%AA%E5%91%BD%E5%90%8D%E7%9A%84%E6%B8%90%E5%8F%98_13" />
    <linearGradient
       id="_未命名的渐变_13-5-4"
       data-name="未命名的渐变 13"
       x1="116.83"
       y1="44.360001"
       x2="417.45999"
       y2="48.549999"
       xlink:href="#_%E6%9C%AA%E5%91%BD%E5%90%8D%E7%9A%84%E6%B8%90%E5%8F%98_13" />
    <linearGradient
       id="_未命名的渐变_13-6-5"
       data-name="未命名的渐变 13"
       x1="116.84"
       y1="43.810001"
       x2="417.47"
       y2="48"
       xlink:href="#_%E6%9C%AA%E5%91%BD%E5%90%8D%E7%9A%84%E6%B8%90%E5%8F%98_13" />
    <linearGradient
       id="_未命名的渐变_13-7-5"
       data-name="未命名的渐变 13"
       x1="116.85"
       y1="43.369999"
       x2="417.47"
       y2="47.560001"
       xlink:href="#_%E6%9C%AA%E5%91%BD%E5%90%8D%E7%9A%84%E6%B8%90%E5%8F%98_13" />
    <linearGradient
       id="_未命名的渐变_13-8-1"
       data-name="未命名的渐变 13"
       x1="116.85"
       y1="42.82"
       x2="417.48001"
       y2="47.009998"
       xlink:href="#_%E6%9C%AA%E5%91%BD%E5%90%8D%E7%9A%84%E6%B8%90%E5%8F%98_13" />
  </defs>
  <g
     id="g9-1"
     transform="matrix(1.1451801,0,0,1.1451801,-26.231966,-15.332946)">
    <text
       xml:space="preserve"
       style="font-size:51.8415px;text-align:start;writing-mode:lr-tb;direction:ltr;text-anchor:start;fill:#03b2f1;fill-opacity:1;stroke-width:4.32013"
       x="169.0676"
       y="65.976593"
       id="text14"><tspan
         sodipodi:role="line"
         x="169.0676"
         y="65.976593"
         id="tspan15"
         style="stroke-width:4.32013">E</tspan></text>
    <text
       xml:space="preserve"
       style="font-size:53.9571px;text-align:start;writing-mode:lr-tb;direction:ltr;text-anchor:start;fill:#7f9579;fill-opacity:1;stroke-width:4.49642"
       x="222.14281"
       y="66.489281"
       id="text16"><tspan
         sodipodi:role="line"
         id="tspan16"
         x="222.14281"
         y="66.489281"
         style="stroke-width:4.49642">V</tspan></text>
    <text
       xml:space="preserve"
       style="font-size:52.1942px;text-align:start;writing-mode:lr-tb;direction:ltr;text-anchor:start;fill:#f17b0b;fill-opacity:1;stroke-width:4.34951"
       x="280.3688"
       y="65.976593"
       id="text17"><tspan
         sodipodi:role="line"
         id="tspan17"
         x="280.3688"
         y="65.976593"
         style="stroke-width:4.34951">A</tspan></text>
  </g>
  <path
     class="cls-9"
     d="M89.1,27.04c3.03,4.08,2.94,11.14,.08,15.44-3.37,5.06-8.67,7.33-15.27,5.64-6.22-1.59-12.27-3.87-18.35-5.98-5.39-1.87-10.82-2.98-16.46-1.52-6.67,1.73-11.11,7.09-11.79,14.02-.05,.48-.16,.94-.29,1.66-2.29-.64-4.47-1.16-6.57-1.91-.44-.16-.84-1.12-.85-1.71-.06-7.65,1.42-14.89,6.71-20.74,4.47-4.94,10.08-7.08,16.84-5.99,5.42,.87,10.13,3.48,15.06,5.62,4.99,2.17,10.08,4.19,15.27,5.8,2.35,.73,5.08,.59,7.59,.32,4.19-.44,7-3.71,7.75-8.43,.1-.61,.16-1.23,.29-2.21Z"
     id="path10" />
  <path
     class="cls-7"
     d="M0,58.31c3.67-1.14,7.37-1.33,11.16-1.22,4.83,.15,9.35,1.29,13.79,3.06,4.3,1.71,8.7,2.89,13.42,2.68,5.23-.24,9.26-2.62,12.1-6.81,1.93-2.84,3.33-6.03,5.12-9.34,2.35,.73,4.98,1.47,7.53,2.44,.45,.17,.9,1.48,.7,2.04-1.94,5.52-4.93,10.32-9.05,14.6-3.69,3.84-8.18,5.36-13.04,5.69-2.68,.18-5.58-.85-8.18-1.86-3.41-1.34-6.66-3.12-9.9-4.85-7.17-3.83-14.83-5.82-22.92-6.32-.25-.02-.5-.07-.74-.11Z"
     id="path11" />
  <path
     class="cls-5"
     d="M88.06,15.02c-1.7-.37-3.39-.74-5.09-1.1-10.16-2.16-18.04,4.15-17.43,14.01,.04,.63,0,1.27,0,2.21-.85-.07-1.64,.03-2.28-.23-2.03-.82-4.04-1.69-5.98-2.7-1.42-.74-1.97-1.94-1.82-3.7,.97-11.03,10.52-17.93,21.12-14.8,3.67,1.08,7.03,3.22,10.53,4.88,.51,.24,1.03,.46,1.55,.69-.2,.25-.41,.5-.61,.74Z"
     id="path12" />
  <g
     id="g14">
    <path
       class="cls-12"
       d="M16.94,54.1c-1.48-4.02-2.28-8.35-2.28-12.87C14.66,20.61,31.43,3.84,52.04,3.84c4.93,0,9.63,.96,13.94,2.7,2.02-.37,4.4-.72,6.88-.88-6.11-3.59-13.23-5.66-20.82-5.66C29.31,0,10.82,18.49,10.82,41.22c0,4.12,.61,8.1,1.74,11.86,1.22,.28,2.77,.64,4.38,1.02Z"
       id="path13" />
    <path
       class="cls-3"
       d="M89.06,46.45c-2.55,18.15-18.18,32.16-37.02,32.16-9.98,0-19.06-3.93-25.77-10.32-1.87-.41-4.24-.94-6.52-1.46,7.56,9.51,19.22,15.62,32.28,15.62,22.73,0,41.22-18.49,41.22-41.22,0-.12,0-.24,0-.36-.98,1.74-2.37,3.8-4.2,5.59Z"
       id="path14" />
  </g>
</svg>
