<?xml version="1.0" encoding="utf-8" standalone="no"?>
<!DOCTYPE svg PUBLIC "-//W3C//DTD SVG 1.1//EN"
  "http://www.w3.org/Graphics/SVG/1.1/DTD/svg11.dtd">
<svg xmlns:xlink="http://www.w3.org/1999/xlink" width="574.048625pt" height="290.578113pt" viewBox="0 0 574.048625 290.578113" xmlns="http://www.w3.org/2000/svg" version="1.1">
 <metadata>
  <rdf:RDF xmlns:dc="http://purl.org/dc/elements/1.1/" xmlns:cc="http://creativecommons.org/ns#" xmlns:rdf="http://www.w3.org/1999/02/22-rdf-syntax-ns#">
   <cc:Work>
    <dc:type rdf:resource="http://purl.org/dc/dcmitype/StillImage"/>
    <dc:date>2026-03-17T11:20:40.709218</dc:date>
    <dc:format>image/svg+xml</dc:format>
    <dc:creator>
     <cc:Agent>
      <dc:title>Matplotlib v3.10.7, https://matplotlib.org/</dc:title>
     </cc:Agent>
    </dc:creator>
   </cc:Work>
  </rdf:RDF>
 </metadata>
 <defs>
  <style type="text/css">*{stroke-linejoin: round; stroke-linecap: butt}</style>
 </defs>
 <g id="figure_1">
  <g id="patch_1">
   <path d="M 0 290.578113 
L 574.048625 290.578113 
L 574.048625 0 
L 0 0 
L 0 290.578113 
z
" style="fill: none"/>
  </g>
  <g id="axes_1">
   <g id="patch_2">
    <path d="M 46.14125 208.980938 
L 548.34125 208.980938 
L 548.34125 23.220937 
L 46.14125 23.220937 
L 46.14125 208.980938 
z
" style="fill: none"/>
   </g>
   <g id="matplotlib.axis_1">
    <g id="xtick_1">
     <g id="line2d_1">
      <defs>
       <path id="m6be75dda9e" d="M 0 0 
L 0 3.5 
" style="stroke: #000000; stroke-width: 0.8"/>
      </defs>
      <g>
       <use xlink:href="#m6be75dda9e" x="81.307589" y="208.980938" style="stroke: #000000; stroke-width: 0.8"/>
      </g>
     </g>
    </g>
    <g id="xtick_2">
     <g id="line2d_2">
      <g>
       <use xlink:href="#m6be75dda9e" x="112.155255" y="208.980938" style="stroke: #000000; stroke-width: 0.8"/>
      </g>
     </g>
    </g>
    <g id="xtick_3">
     <g id="line2d_3">
      <g>
       <use xlink:href="#m6be75dda9e" x="143.002921" y="208.980938" style="stroke: #000000; stroke-width: 0.8"/>
      </g>
     </g>
    </g>
    <g id="xtick_4">
     <g id="line2d_4">
      <g>
       <use xlink:href="#m6be75dda9e" x="173.850587" y="208.980938" style="stroke: #000000; stroke-width: 0.8"/>
      </g>
     </g>
    </g>
    <g id="xtick_5">
     <g id="line2d_5">
      <g>
       <use xlink:href="#m6be75dda9e" x="204.698252" y="208.980938" style="stroke: #000000; stroke-width: 0.8"/>
      </g>
     </g>
    </g>
    <g id="xtick_6">
     <g id="line2d_6">
      <g>
       <use xlink:href="#m6be75dda9e" x="235.545918" y="208.980938" style="stroke: #000000; stroke-width: 0.8"/>
      </g>
     </g>
    </g>
    <g id="xtick_7">
     <g id="line2d_7">
      <g>
       <use xlink:href="#m6be75dda9e" x="266.393584" y="208.980938" style="stroke: #000000; stroke-width: 0.8"/>
      </g>
     </g>
    </g>
    <g id="xtick_8">
     <g id="line2d_8">
      <g>
       <use xlink:href="#m6be75dda9e" x="297.24125" y="208.980938" style="stroke: #000000; stroke-width: 0.8"/>
      </g>
     </g>
    </g>
    <g id="xtick_9">
     <g id="line2d_9">
      <g>
       <use xlink:href="#m6be75dda9e" x="328.088916" y="208.980938" style="stroke: #000000; stroke-width: 0.8"/>
      </g>
     </g>
    </g>
    <g id="xtick_10">
     <g id="line2d_10">
      <g>
       <use xlink:href="#m6be75dda9e" x="358.936582" y="208.980938" style="stroke: #000000; stroke-width: 0.8"/>
      </g>
     </g>
    </g>
    <g id="xtick_11">
     <g id="line2d_11">
      <g>
       <use xlink:href="#m6be75dda9e" x="389.784248" y="208.980938" style="stroke: #000000; stroke-width: 0.8"/>
      </g>
     </g>
    </g>
    <g id="xtick_12">
     <g id="line2d_12">
      <g>
       <use xlink:href="#m6be75dda9e" x="420.631913" y="208.980938" style="stroke: #000000; stroke-width: 0.8"/>
      </g>
     </g>
    </g>
    <g id="xtick_13">
     <g id="line2d_13">
      <g>
       <use xlink:href="#m6be75dda9e" x="451.479579" y="208.980938" style="stroke: #000000; stroke-width: 0.8"/>
      </g>
     </g>
    </g>
    <g id="xtick_14">
     <g id="line2d_14">
      <g>
       <use xlink:href="#m6be75dda9e" x="482.327245" y="208.980938" style="stroke: #000000; stroke-width: 0.8"/>
      </g>
     </g>
    </g>
    <g id="xtick_15">
     <g id="line2d_15">
      <g>
       <use xlink:href="#m6be75dda9e" x="513.174911" y="208.980938" style="stroke: #000000; stroke-width: 0.8"/>
      </g>
     </g>
    </g>
   </g>
   <g id="matplotlib.axis_2">
    <g id="ytick_1">
     <g id="line2d_16">
      <path d="M 46.14125 208.980938 
L 548.34125 208.980938 
" clip-path="url(#p464e3d4b18)" style="fill: none; stroke-dasharray: 2.96,1.28; stroke-dashoffset: 0; stroke: #808080; stroke-opacity: 0.7; stroke-width: 0.8"/>
     </g>
     <g id="line2d_17">
      <defs>
       <path id="m1fda89d2c0" d="M 0 0 
L -3.5 0 
" style="stroke: #000000; stroke-width: 0.8"/>
      </defs>
      <g>
       <use xlink:href="#m1fda89d2c0" x="46.14125" y="208.980938" style="stroke: #000000; stroke-width: 0.8"/>
      </g>
     </g>
     <g id="text_1">
      <!-- 0 -->
      <g transform="translate(32.468125 213.275625) scale(0.12 -0.12)">
       <defs>
        <path id="ArialMT-30" d="M 266 2259 
Q 266 3072 433 3567 
Q 600 4063 929 4331 
Q 1259 4600 1759 4600 
Q 2128 4600 2406 4451 
Q 2684 4303 2865 4023 
Q 3047 3744 3150 3342 
Q 3253 2941 3253 2259 
Q 3253 1453 3087 958 
Q 2922 463 2592 192 
Q 2263 -78 1759 -78 
Q 1097 -78 719 397 
Q 266 969 266 2259 
z
M 844 2259 
Q 844 1131 1108 757 
Q 1372 384 1759 384 
Q 2147 384 2411 759 
Q 2675 1134 2675 2259 
Q 2675 3391 2411 3762 
Q 2147 4134 1753 4134 
Q 1366 4134 1134 3806 
Q 844 3388 844 2259 
z
" transform="scale(0.015625)"/>
       </defs>
       <use xlink:href="#ArialMT-30"/>
      </g>
     </g>
    </g>
    <g id="ytick_2">
     <g id="line2d_18">
      <path d="M 46.14125 178.020938 
L 548.34125 178.020938 
" clip-path="url(#p464e3d4b18)" style="fill: none; stroke-dasharray: 2.96,1.28; stroke-dashoffset: 0; stroke: #808080; stroke-opacity: 0.7; stroke-width: 0.8"/>
     </g>
     <g id="line2d_19">
      <g>
       <use xlink:href="#m1fda89d2c0" x="46.14125" y="178.020938" style="stroke: #000000; stroke-width: 0.8"/>
      </g>
     </g>
     <g id="text_2">
      <!-- 0.1 -->
      <g transform="translate(22.46125 182.315625) scale(0.12 -0.12)">
       <defs>
        <path id="ArialMT-2e" d="M 581 0 
L 581 641 
L 1222 641 
L 1222 0 
L 581 0 
z
" transform="scale(0.015625)"/>
        <path id="ArialMT-31" d="M 2384 0 
L 1822 0 
L 1822 3584 
Q 1619 3391 1289 3197 
Q 959 3003 697 2906 
L 697 3450 
Q 1169 3672 1522 3987 
Q 1875 4303 2022 4600 
L 2384 4600 
L 2384 0 
z
" transform="scale(0.015625)"/>
       </defs>
       <use xlink:href="#ArialMT-30"/>
       <use xlink:href="#ArialMT-2e" transform="translate(55.615234 0)"/>
       <use xlink:href="#ArialMT-31" transform="translate(83.398438 0)"/>
      </g>
     </g>
    </g>
    <g id="ytick_3">
     <g id="line2d_20">
      <path d="M 46.14125 147.060937 
L 548.34125 147.060937 
" clip-path="url(#p464e3d4b18)" style="fill: none; stroke-dasharray: 2.96,1.28; stroke-dashoffset: 0; stroke: #808080; stroke-opacity: 0.7; stroke-width: 0.8"/>
     </g>
     <g id="line2d_21">
      <g>
       <use xlink:href="#m1fda89d2c0" x="46.14125" y="147.060937" style="stroke: #000000; stroke-width: 0.8"/>
      </g>
     </g>
     <g id="text_3">
      <!-- 0.2 -->
      <g transform="translate(22.46125 151.355625) scale(0.12 -0.12)">
       <defs>
        <path id="ArialMT-32" d="M 3222 541 
L 3222 0 
L 194 0 
Q 188 203 259 391 
Q 375 700 629 1000 
Q 884 1300 1366 1694 
Q 2113 2306 2375 2664 
Q 2638 3022 2638 3341 
Q 2638 3675 2398 3904 
Q 2159 4134 1775 4134 
Q 1369 4134 1125 3890 
Q 881 3647 878 3216 
L 300 3275 
Q 359 3922 746 4261 
Q 1134 4600 1788 4600 
Q 2447 4600 2831 4234 
Q 3216 3869 3216 3328 
Q 3216 3053 3103 2787 
Q 2991 2522 2730 2228 
Q 2469 1934 1863 1422 
Q 1356 997 1212 845 
Q 1069 694 975 541 
L 3222 541 
z
" transform="scale(0.015625)"/>
       </defs>
       <use xlink:href="#ArialMT-30"/>
       <use xlink:href="#ArialMT-2e" transform="translate(55.615234 0)"/>
       <use xlink:href="#ArialMT-32" transform="translate(83.398438 0)"/>
      </g>
     </g>
    </g>
    <g id="ytick_4">
     <g id="line2d_22">
      <path d="M 46.14125 116.100938 
L 548.34125 116.100938 
" clip-path="url(#p464e3d4b18)" style="fill: none; stroke-dasharray: 2.96,1.28; stroke-dashoffset: 0; stroke: #808080; stroke-opacity: 0.7; stroke-width: 0.8"/>
     </g>
     <g id="line2d_23">
      <g>
       <use xlink:href="#m1fda89d2c0" x="46.14125" y="116.100938" style="stroke: #000000; stroke-width: 0.8"/>
      </g>
     </g>
     <g id="text_4">
      <!-- 0.3 -->
      <g transform="translate(22.46125 120.395625) scale(0.12 -0.12)">
       <defs>
        <path id="ArialMT-33" d="M 269 1209 
L 831 1284 
Q 928 806 1161 595 
Q 1394 384 1728 384 
Q 2125 384 2398 659 
Q 2672 934 2672 1341 
Q 2672 1728 2419 1979 
Q 2166 2231 1775 2231 
Q 1616 2231 1378 2169 
L 1441 2663 
Q 1497 2656 1531 2656 
Q 1891 2656 2178 2843 
Q 2466 3031 2466 3422 
Q 2466 3731 2256 3934 
Q 2047 4138 1716 4138 
Q 1388 4138 1169 3931 
Q 950 3725 888 3313 
L 325 3413 
Q 428 3978 793 4289 
Q 1159 4600 1703 4600 
Q 2078 4600 2393 4439 
Q 2709 4278 2876 4000 
Q 3044 3722 3044 3409 
Q 3044 3113 2884 2869 
Q 2725 2625 2413 2481 
Q 2819 2388 3044 2092 
Q 3269 1797 3269 1353 
Q 3269 753 2831 336 
Q 2394 -81 1725 -81 
Q 1122 -81 723 278 
Q 325 638 269 1209 
z
" transform="scale(0.015625)"/>
       </defs>
       <use xlink:href="#ArialMT-30"/>
       <use xlink:href="#ArialMT-2e" transform="translate(55.615234 0)"/>
       <use xlink:href="#ArialMT-33" transform="translate(83.398438 0)"/>
      </g>
     </g>
    </g>
    <g id="ytick_5">
     <g id="line2d_24">
      <path d="M 46.14125 85.140937 
L 548.34125 85.140937 
" clip-path="url(#p464e3d4b18)" style="fill: none; stroke-dasharray: 2.96,1.28; stroke-dashoffset: 0; stroke: #808080; stroke-opacity: 0.7; stroke-width: 0.8"/>
     </g>
     <g id="line2d_25">
      <g>
       <use xlink:href="#m1fda89d2c0" x="46.14125" y="85.140937" style="stroke: #000000; stroke-width: 0.8"/>
      </g>
     </g>
     <g id="text_5">
      <!-- 0.4 -->
      <g transform="translate(22.46125 89.435625) scale(0.12 -0.12)">
       <defs>
        <path id="ArialMT-34" d="M 2069 0 
L 2069 1097 
L 81 1097 
L 81 1613 
L 2172 4581 
L 2631 4581 
L 2631 1613 
L 3250 1613 
L 3250 1097 
L 2631 1097 
L 2631 0 
L 2069 0 
z
M 2069 1613 
L 2069 3678 
L 634 1613 
L 2069 1613 
z
" transform="scale(0.015625)"/>
       </defs>
       <use xlink:href="#ArialMT-30"/>
       <use xlink:href="#ArialMT-2e" transform="translate(55.615234 0)"/>
       <use xlink:href="#ArialMT-34" transform="translate(83.398438 0)"/>
      </g>
     </g>
    </g>
    <g id="ytick_6">
     <g id="line2d_26">
      <path d="M 46.14125 54.180937 
L 548.34125 54.180937 
" clip-path="url(#p464e3d4b18)" style="fill: none; stroke-dasharray: 2.96,1.28; stroke-dashoffset: 0; stroke: #808080; stroke-opacity: 0.7; stroke-width: 0.8"/>
     </g>
     <g id="line2d_27">
      <g>
       <use xlink:href="#m1fda89d2c0" x="46.14125" y="54.180937" style="stroke: #000000; stroke-width: 0.8"/>
      </g>
     </g>
     <g id="text_6">
      <!-- 0.5 -->
      <g transform="translate(22.46125 58.475625) scale(0.12 -0.12)">
       <defs>
        <path id="ArialMT-35" d="M 266 1200 
L 856 1250 
Q 922 819 1161 601 
Q 1400 384 1738 384 
Q 2144 384 2425 690 
Q 2706 997 2706 1503 
Q 2706 1984 2436 2262 
Q 2166 2541 1728 2541 
Q 1456 2541 1237 2417 
Q 1019 2294 894 2097 
L 366 2166 
L 809 4519 
L 3088 4519 
L 3088 3981 
L 1259 3981 
L 1013 2750 
Q 1425 3038 1878 3038 
Q 2478 3038 2890 2622 
Q 3303 2206 3303 1553 
Q 3303 931 2941 478 
Q 2500 -78 1738 -78 
Q 1113 -78 717 272 
Q 322 622 266 1200 
z
" transform="scale(0.015625)"/>
       </defs>
       <use xlink:href="#ArialMT-30"/>
       <use xlink:href="#ArialMT-2e" transform="translate(55.615234 0)"/>
       <use xlink:href="#ArialMT-35" transform="translate(83.398438 0)"/>
      </g>
     </g>
    </g>
    <g id="ytick_7">
     <g id="line2d_28">
      <path d="M 46.14125 46.440937 
L 548.34125 46.440937 
" clip-path="url(#p464e3d4b18)" style="fill: none; stroke-dasharray: 2.96,1.28; stroke-dashoffset: 0; stroke: #808080; stroke-opacity: 0.7; stroke-width: 0.8"/>
     </g>
     <g id="line2d_29">
      <g>
       <use xlink:href="#m1fda89d2c0" x="46.14125" y="46.440937" style="stroke: #000000; stroke-width: 0.8"/>
      </g>
     </g>
    </g>
    <g id="ytick_8">
     <g id="line2d_30">
      <path d="M 46.14125 38.700937 
L 548.34125 38.700937 
" clip-path="url(#p464e3d4b18)" style="fill: none; stroke-dasharray: 2.96,1.28; stroke-dashoffset: 0; stroke: #808080; stroke-opacity: 0.7; stroke-width: 0.8"/>
     </g>
     <g id="line2d_31">
      <g>
       <use xlink:href="#m1fda89d2c0" x="46.14125" y="38.700937" style="stroke: #000000; stroke-width: 0.8"/>
      </g>
     </g>
     <g id="text_7">
      <!-- 0.7 -->
      <g transform="translate(22.46125 42.995625) scale(0.12 -0.12)">
       <defs>
        <path id="ArialMT-37" d="M 303 3981 
L 303 4522 
L 3269 4522 
L 3269 4084 
Q 2831 3619 2401 2847 
Q 1972 2075 1738 1259 
Q 1569 684 1522 0 
L 944 0 
Q 953 541 1156 1306 
Q 1359 2072 1739 2783 
Q 2119 3494 2547 3981 
L 303 3981 
z
" transform="scale(0.015625)"/>
       </defs>
       <use xlink:href="#ArialMT-30"/>
       <use xlink:href="#ArialMT-2e" transform="translate(55.615234 0)"/>
       <use xlink:href="#ArialMT-37" transform="translate(83.398438 0)"/>
      </g>
     </g>
    </g>
    <g id="ytick_9">
     <g id="line2d_32">
      <path d="M 46.14125 30.960938 
L 548.34125 30.960938 
" clip-path="url(#p464e3d4b18)" style="fill: none; stroke-dasharray: 2.96,1.28; stroke-dashoffset: 0; stroke: #808080; stroke-opacity: 0.7; stroke-width: 0.8"/>
     </g>
     <g id="line2d_33">
      <g>
       <use xlink:href="#m1fda89d2c0" x="46.14125" y="30.960938" style="stroke: #000000; stroke-width: 0.8"/>
      </g>
     </g>
    </g>
    <g id="ytick_10">
     <g id="line2d_34">
      <path d="M 46.14125 23.220937 
L 548.34125 23.220937 
" clip-path="url(#p464e3d4b18)" style="fill: none; stroke-dasharray: 2.96,1.28; stroke-dashoffset: 0; stroke: #808080; stroke-opacity: 0.7; stroke-width: 0.8"/>
     </g>
     <g id="line2d_35">
      <g>
       <use xlink:href="#m1fda89d2c0" x="46.14125" y="23.220937" style="stroke: #000000; stroke-width: 0.8"/>
      </g>
     </g>
     <g id="text_8">
      <!-- 0.9 -->
      <g transform="translate(22.46125 27.515625) scale(0.12 -0.12)">
       <defs>
        <path id="ArialMT-39" d="M 350 1059 
L 891 1109 
Q 959 728 1153 556 
Q 1347 384 1650 384 
Q 1909 384 2104 503 
Q 2300 622 2425 820 
Q 2550 1019 2634 1356 
Q 2719 1694 2719 2044 
Q 2719 2081 2716 2156 
Q 2547 1888 2255 1720 
Q 1963 1553 1622 1553 
Q 1053 1553 659 1965 
Q 266 2378 266 3053 
Q 266 3750 677 4175 
Q 1088 4600 1706 4600 
Q 2153 4600 2523 4359 
Q 2894 4119 3086 3673 
Q 3278 3228 3278 2384 
Q 3278 1506 3087 986 
Q 2897 466 2520 194 
Q 2144 -78 1638 -78 
Q 1100 -78 759 220 
Q 419 519 350 1059 
z
M 2653 3081 
Q 2653 3566 2395 3850 
Q 2138 4134 1775 4134 
Q 1400 4134 1122 3828 
Q 844 3522 844 3034 
Q 844 2597 1108 2323 
Q 1372 2050 1759 2050 
Q 2150 2050 2401 2323 
Q 2653 2597 2653 3081 
z
" transform="scale(0.015625)"/>
       </defs>
       <use xlink:href="#ArialMT-30"/>
       <use xlink:href="#ArialMT-2e" transform="translate(55.615234 0)"/>
       <use xlink:href="#ArialMT-39" transform="translate(83.398438 0)"/>
      </g>
     </g>
    </g>
    <g id="text_9">
     <!-- |Spearman r| -->
     <g transform="translate(15.935625 150.564375) rotate(-90) scale(0.12 -0.12)">
      <defs>
       <path id="ArialMT-7c" d="M 588 -1347 
L 588 4659 
L 1078 4659 
L 1078 -1347 
L 588 -1347 
z
" transform="scale(0.015625)"/>
       <path id="ArialMT-53" d="M 288 1472 
L 859 1522 
Q 900 1178 1048 958 
Q 1197 738 1509 602 
Q 1822 466 2213 466 
Q 2559 466 2825 569 
Q 3091 672 3220 851 
Q 3350 1031 3350 1244 
Q 3350 1459 3225 1620 
Q 3100 1781 2813 1891 
Q 2628 1963 1997 2114 
Q 1366 2266 1113 2400 
Q 784 2572 623 2826 
Q 463 3081 463 3397 
Q 463 3744 659 4045 
Q 856 4347 1234 4503 
Q 1613 4659 2075 4659 
Q 2584 4659 2973 4495 
Q 3363 4331 3572 4012 
Q 3781 3694 3797 3291 
L 3216 3247 
Q 3169 3681 2898 3903 
Q 2628 4125 2100 4125 
Q 1550 4125 1298 3923 
Q 1047 3722 1047 3438 
Q 1047 3191 1225 3031 
Q 1400 2872 2139 2705 
Q 2878 2538 3153 2413 
Q 3553 2228 3743 1945 
Q 3934 1663 3934 1294 
Q 3934 928 3725 604 
Q 3516 281 3123 101 
Q 2731 -78 2241 -78 
Q 1619 -78 1198 103 
Q 778 284 539 648 
Q 300 1013 288 1472 
z
" transform="scale(0.015625)"/>
       <path id="ArialMT-70" d="M 422 -1272 
L 422 3319 
L 934 3319 
L 934 2888 
Q 1116 3141 1344 3267 
Q 1572 3394 1897 3394 
Q 2322 3394 2647 3175 
Q 2972 2956 3137 2557 
Q 3303 2159 3303 1684 
Q 3303 1175 3120 767 
Q 2938 359 2589 142 
Q 2241 -75 1856 -75 
Q 1575 -75 1351 44 
Q 1128 163 984 344 
L 984 -1272 
L 422 -1272 
z
M 931 1641 
Q 931 1000 1190 694 
Q 1450 388 1819 388 
Q 2194 388 2461 705 
Q 2728 1022 2728 1688 
Q 2728 2322 2467 2637 
Q 2206 2953 1844 2953 
Q 1484 2953 1207 2617 
Q 931 2281 931 1641 
z
" transform="scale(0.015625)"/>
       <path id="ArialMT-65" d="M 2694 1069 
L 3275 997 
Q 3138 488 2766 206 
Q 2394 -75 1816 -75 
Q 1088 -75 661 373 
Q 234 822 234 1631 
Q 234 2469 665 2931 
Q 1097 3394 1784 3394 
Q 2450 3394 2872 2941 
Q 3294 2488 3294 1666 
Q 3294 1616 3291 1516 
L 816 1516 
Q 847 969 1125 678 
Q 1403 388 1819 388 
Q 2128 388 2347 550 
Q 2566 713 2694 1069 
z
M 847 1978 
L 2700 1978 
Q 2663 2397 2488 2606 
Q 2219 2931 1791 2931 
Q 1403 2931 1139 2672 
Q 875 2413 847 1978 
z
" transform="scale(0.015625)"/>
       <path id="ArialMT-61" d="M 2588 409 
Q 2275 144 1986 34 
Q 1697 -75 1366 -75 
Q 819 -75 525 192 
Q 231 459 231 875 
Q 231 1119 342 1320 
Q 453 1522 633 1644 
Q 813 1766 1038 1828 
Q 1203 1872 1538 1913 
Q 2219 1994 2541 2106 
Q 2544 2222 2544 2253 
Q 2544 2597 2384 2738 
Q 2169 2928 1744 2928 
Q 1347 2928 1158 2789 
Q 969 2650 878 2297 
L 328 2372 
Q 403 2725 575 2942 
Q 747 3159 1072 3276 
Q 1397 3394 1825 3394 
Q 2250 3394 2515 3294 
Q 2781 3194 2906 3042 
Q 3031 2891 3081 2659 
Q 3109 2516 3109 2141 
L 3109 1391 
Q 3109 606 3145 398 
Q 3181 191 3288 0 
L 2700 0 
Q 2613 175 2588 409 
z
M 2541 1666 
Q 2234 1541 1622 1453 
Q 1275 1403 1131 1340 
Q 988 1278 909 1158 
Q 831 1038 831 891 
Q 831 666 1001 516 
Q 1172 366 1500 366 
Q 1825 366 2078 508 
Q 2331 650 2450 897 
Q 2541 1088 2541 1459 
L 2541 1666 
z
" transform="scale(0.015625)"/>
       <path id="ArialMT-72" d="M 416 0 
L 416 3319 
L 922 3319 
L 922 2816 
Q 1116 3169 1280 3281 
Q 1444 3394 1641 3394 
Q 1925 3394 2219 3213 
L 2025 2691 
Q 1819 2813 1613 2813 
Q 1428 2813 1281 2702 
Q 1134 2591 1072 2394 
Q 978 2094 978 1738 
L 978 0 
L 416 0 
z
" transform="scale(0.015625)"/>
       <path id="ArialMT-6d" d="M 422 0 
L 422 3319 
L 925 3319 
L 925 2853 
Q 1081 3097 1340 3245 
Q 1600 3394 1931 3394 
Q 2300 3394 2536 3241 
Q 2772 3088 2869 2813 
Q 3263 3394 3894 3394 
Q 4388 3394 4653 3120 
Q 4919 2847 4919 2278 
L 4919 0 
L 4359 0 
L 4359 2091 
Q 4359 2428 4304 2576 
Q 4250 2725 4106 2815 
Q 3963 2906 3769 2906 
Q 3419 2906 3187 2673 
Q 2956 2441 2956 1928 
L 2956 0 
L 2394 0 
L 2394 2156 
Q 2394 2531 2256 2718 
Q 2119 2906 1806 2906 
Q 1569 2906 1367 2781 
Q 1166 2656 1075 2415 
Q 984 2175 984 1722 
L 984 0 
L 422 0 
z
" transform="scale(0.015625)"/>
       <path id="ArialMT-6e" d="M 422 0 
L 422 3319 
L 928 3319 
L 928 2847 
Q 1294 3394 1984 3394 
Q 2284 3394 2536 3286 
Q 2788 3178 2913 3003 
Q 3038 2828 3088 2588 
Q 3119 2431 3119 2041 
L 3119 0 
L 2556 0 
L 2556 2019 
Q 2556 2363 2490 2533 
Q 2425 2703 2258 2804 
Q 2091 2906 1866 2906 
Q 1506 2906 1245 2678 
Q 984 2450 984 1813 
L 984 0 
L 422 0 
z
" transform="scale(0.015625)"/>
       <path id="ArialMT-20" transform="scale(0.015625)"/>
      </defs>
      <use xlink:href="#ArialMT-7c"/>
      <use xlink:href="#ArialMT-53" transform="translate(25.976562 0)"/>
      <use xlink:href="#ArialMT-70" transform="translate(92.675781 0)"/>
      <use xlink:href="#ArialMT-65" transform="translate(148.291016 0)"/>
      <use xlink:href="#ArialMT-61" transform="translate(203.90625 0)"/>
      <use xlink:href="#ArialMT-72" transform="translate(259.521484 0)"/>
      <use xlink:href="#ArialMT-6d" transform="translate(292.822266 0)"/>
      <use xlink:href="#ArialMT-61" transform="translate(376.123047 0)"/>
      <use xlink:href="#ArialMT-6e" transform="translate(431.738281 0)"/>
      <use xlink:href="#ArialMT-20" transform="translate(487.353516 0)"/>
      <use xlink:href="#ArialMT-72" transform="translate(515.136719 0)"/>
      <use xlink:href="#ArialMT-7c" transform="translate(548.4375 0)"/>
     </g>
    </g>
   </g>
   <g id="patch_3">
    <path d="M 68.968523 208.980938 
L 93.646655 208.980938 
L 93.646655 85.368019 
L 68.968523 85.368019 
z
" clip-path="url(#p464e3d4b18)" style="fill: #ffa45b; opacity: 0.85"/>
   </g>
   <g id="patch_4">
    <path d="M 99.816189 208.980938 
L 124.494321 208.980938 
L 124.494321 130.661205 
L 99.816189 130.661205 
z
" clip-path="url(#p464e3d4b18)" style="fill: #ffaf6d; opacity: 0.85"/>
   </g>
   <g id="patch_5">
    <path d="M 130.663854 208.980938 
L 155.341987 208.980938 
L 155.341987 150.716662 
L 130.663854 150.716662 
z
" clip-path="url(#p464e3d4b18)" style="fill: #d3d3d3; opacity: 0.85"/>
   </g>
   <g id="patch_6">
    <path d="M 161.51152 208.980938 
L 186.189653 208.980938 
L 186.189653 158.643896 
L 161.51152 158.643896 
z
" clip-path="url(#p464e3d4b18)" style="fill: #d3d3d3; opacity: 0.85"/>
   </g>
   <g id="patch_7">
    <path d="M 192.359186 208.980938 
L 217.037319 208.980938 
L 217.037319 163.271269 
L 192.359186 163.271269 
z
" clip-path="url(#p464e3d4b18)" style="fill: #d3d3d3; opacity: 0.85"/>
   </g>
   <g id="patch_8">
    <path d="M 223.206852 208.980938 
L 247.884985 208.980938 
L 247.884985 166.78937 
L 223.206852 166.78937 
z
" clip-path="url(#p464e3d4b18)" style="fill: #d3d3d3; opacity: 0.85"/>
   </g>
   <g id="patch_9">
    <path d="M 254.054518 208.980938 
L 278.73265 208.980938 
L 278.73265 169.601447 
L 254.054518 169.601447 
z
" clip-path="url(#p464e3d4b18)" style="fill: #d3d3d3; opacity: 0.85"/>
   </g>
   <g id="patch_10">
    <path d="M 284.902184 208.980938 
L 309.580316 208.980938 
L 309.580316 172.569641 
L 284.902184 172.569641 
z
" clip-path="url(#p464e3d4b18)" style="fill: #d3d3d3; opacity: 0.85"/>
   </g>
   <g id="patch_11">
    <path d="M 315.74985 208.980938 
L 340.427982 208.980938 
L 340.427982 145.192817 
L 315.74985 145.192817 
z
" clip-path="url(#p464e3d4b18)" style="fill: #50b9ae; opacity: 0.85"/>
   </g>
   <g id="patch_12">
    <path d="M 346.597515 208.980938 
L 371.275648 208.980938 
L 371.275648 160.828735 
L 346.597515 160.828735 
z
" clip-path="url(#p464e3d4b18)" style="fill: #d3d3d3; opacity: 0.85"/>
   </g>
   <g id="patch_13">
    <path d="M 377.445181 208.980938 
L 402.123314 208.980938 
L 402.123314 181.647917 
L 377.445181 181.647917 
z
" clip-path="url(#p464e3d4b18)" style="fill: #d3d3d3; opacity: 0.85"/>
   </g>
   <g id="patch_14">
    <path d="M 408.292847 208.980938 
L 432.97098 208.980938 
L 432.97098 115.834914 
L 408.292847 115.834914 
z
" clip-path="url(#p464e3d4b18)" style="fill: #73b9e7; opacity: 0.85"/>
   </g>
   <g id="patch_15">
    <path d="M 439.140513 208.980938 
L 463.818646 208.980938 
L 463.818646 169.234153 
L 439.140513 169.234153 
z
" clip-path="url(#p464e3d4b18)" style="fill: #d3d3d3; opacity: 0.85"/>
   </g>
   <g id="patch_16">
    <path d="M 469.988179 208.980938 
L 494.666311 208.980938 
L 494.666311 178.475026 
L 469.988179 178.475026 
z
" clip-path="url(#p464e3d4b18)" style="fill: #d3d3d3; opacity: 0.85"/>
   </g>
   <g id="patch_17">
    <path d="M 500.835845 208.980938 
L 525.513977 208.980938 
L 525.513977 178.557839 
L 500.835845 178.557839 
z
" clip-path="url(#p464e3d4b18)" style="fill: #d3d3d3; opacity: 0.85"/>
   </g>
   <g id="PathCollection_1">
    <defs>
     <path id="m24bfc5f85c" d="M 0 1.414214 
C 0.375054 1.414214 0.734797 1.265203 1 1 
C 1.265203 0.734797 1.414214 0.375054 1.414214 0 
C 1.414214 -0.375054 1.265203 -0.734797 1 -1 
C 0.734797 -1.265203 0.375054 -1.414214 0 -1.414214 
C -0.375054 -1.414214 -0.734797 -1.265203 -1 -1 
C -1.265203 -0.734797 -1.414214 -0.375054 -1.414214 0 
C -1.414214 0.375054 -1.265203 0.734797 -1 1 
C -0.734797 1.265203 -0.375054 1.414214 0 1.414214 
z
" style="stroke: #808080"/>
    </defs>
    <g clip-path="url(#p464e3d4b18)">
     <use xlink:href="#m24bfc5f85c" x="82.073713" y="28.171006" style="fill: #808080; stroke: #808080"/>
     <use xlink:href="#m24bfc5f85c" x="81.094333" y="45.712026" style="fill: #808080; stroke: #808080"/>
     <use xlink:href="#m24bfc5f85c" x="82.306573" y="48.872386" style="fill: #808080; stroke: #808080"/>
     <use xlink:href="#m24bfc5f85c" x="83.656685" y="49.479075" style="fill: #808080; stroke: #808080"/>
     <use xlink:href="#m24bfc5f85c" x="80.946435" y="71.376174" style="fill: #808080; stroke: #808080"/>
     <use xlink:href="#m24bfc5f85c" x="80.94646" y="75.364064" style="fill: #808080; stroke: #808080"/>
     <use xlink:href="#m24bfc5f85c" x="83.743341" y="102.274057" style="fill: #808080; stroke: #808080"/>
     <use xlink:href="#m24bfc5f85c" x="82.491268" y="98.497822" style="fill: #808080; stroke: #808080"/>
     <use xlink:href="#m24bfc5f85c" x="80.58348" y="166.230612" style="fill: #808080; stroke: #808080"/>
     <use xlink:href="#m24bfc5f85c" x="82.144425" y="99.479723" style="fill: #808080; stroke: #808080"/>
     <use xlink:href="#m24bfc5f85c" x="80.592821" y="164.524559" style="fill: #808080; stroke: #808080"/>
     <use xlink:href="#m24bfc5f85c" x="80.589255" y="154.14191" style="fill: #808080; stroke: #808080"/>
     <use xlink:href="#m24bfc5f85c" x="81.680788" y="139.128604" style="fill: #808080; stroke: #808080"/>
    </g>
   </g>
   <g id="PathCollection_2">
    <g clip-path="url(#p464e3d4b18)">
     <use xlink:href="#m24bfc5f85c" x="109.204243" y="53.602917" style="fill: #808080; stroke: #808080"/>
     <use xlink:href="#m24bfc5f85c" x="109.49477" y="59.338432" style="fill: #808080; stroke: #808080"/>
     <use xlink:href="#m24bfc5f85c" x="111.287992" y="113.571157" style="fill: #808080; stroke: #808080"/>
     <use xlink:href="#m24bfc5f85c" x="110.593081" y="50.857582" style="fill: #808080; stroke: #808080"/>
     <use xlink:href="#m24bfc5f85c" x="112.639945" y="169.507926" style="fill: #808080; stroke: #808080"/>
     <use xlink:href="#m24bfc5f85c" x="110.754734" y="105.50933" style="fill: #808080; stroke: #808080"/>
     <use xlink:href="#m24bfc5f85c" x="109.976941" y="125.415554" style="fill: #808080; stroke: #808080"/>
     <use xlink:href="#m24bfc5f85c" x="114.415847" y="163.992886" style="fill: #808080; stroke: #808080"/>
     <use xlink:href="#m24bfc5f85c" x="111.807021" y="198.721273" style="fill: #808080; stroke: #808080"/>
     <use xlink:href="#m24bfc5f85c" x="112.259409" y="140.02239" style="fill: #808080; stroke: #808080"/>
     <use xlink:href="#m24bfc5f85c" x="109.957747" y="156.52188" style="fill: #808080; stroke: #808080"/>
     <use xlink:href="#m24bfc5f85c" x="111.315608" y="169.216887" style="fill: #808080; stroke: #808080"/>
     <use xlink:href="#m24bfc5f85c" x="112.32634" y="204.021585" style="fill: #808080; stroke: #808080"/>
    </g>
   </g>
   <g id="PathCollection_3">
    <g clip-path="url(#p464e3d4b18)">
     <use xlink:href="#m24bfc5f85c" x="141.227647" y="156.846411" style="fill: #808080; stroke: #808080"/>
     <use xlink:href="#m24bfc5f85c" x="143.582391" y="194.146244" style="fill: #808080; stroke: #808080"/>
     <use xlink:href="#m24bfc5f85c" x="142.076506" y="96.005647" style="fill: #808080; stroke: #808080"/>
     <use xlink:href="#m24bfc5f85c" x="142.553017" y="143.036625" style="fill: #808080; stroke: #808080"/>
     <use xlink:href="#m24bfc5f85c" x="142.074859" y="122.56567" style="fill: #808080; stroke: #808080"/>
     <use xlink:href="#m24bfc5f85c" x="145.859844" y="156.466062" style="fill: #808080; stroke: #808080"/>
     <use xlink:href="#m24bfc5f85c" x="142.982103" y="173.501966" style="fill: #808080; stroke: #808080"/>
     <use xlink:href="#m24bfc5f85c" x="141.371525" y="154.376423" style="fill: #808080; stroke: #808080"/>
     <use xlink:href="#m24bfc5f85c" x="144.2716" y="191.679033" style="fill: #808080; stroke: #808080"/>
     <use xlink:href="#m24bfc5f85c" x="141.119912" y="138.356329" style="fill: #808080; stroke: #808080"/>
     <use xlink:href="#m24bfc5f85c" x="143.325068" y="177.952254" style="fill: #808080; stroke: #808080"/>
     <use xlink:href="#m24bfc5f85c" x="139.980358" y="207.024236" style="fill: #808080; stroke: #808080"/>
     <use xlink:href="#m24bfc5f85c" x="140.954349" y="52.475631" style="fill: #808080; stroke: #808080"/>
    </g>
   </g>
   <g id="PathCollection_4">
    <g clip-path="url(#p464e3d4b18)">
     <use xlink:href="#m24bfc5f85c" x="174.154222" y="157.603253" style="fill: #808080; stroke: #808080"/>
     <use xlink:href="#m24bfc5f85c" x="174.989585" y="111.753747" style="fill: #808080; stroke: #808080"/>
     <use xlink:href="#m24bfc5f85c" x="174.114902" y="162.50816" style="fill: #808080; stroke: #808080"/>
     <use xlink:href="#m24bfc5f85c" x="173.672213" y="201.030011" style="fill: #808080; stroke: #808080"/>
     <use xlink:href="#m24bfc5f85c" x="173.386169" y="187.300271" style="fill: #808080; stroke: #808080"/>
     <use xlink:href="#m24bfc5f85c" x="171.570139" y="173.079237" style="fill: #808080; stroke: #808080"/>
     <use xlink:href="#m24bfc5f85c" x="172.740311" y="187.973536" style="fill: #808080; stroke: #808080"/>
     <use xlink:href="#m24bfc5f85c" x="173.140105" y="161.913424" style="fill: #808080; stroke: #808080"/>
     <use xlink:href="#m24bfc5f85c" x="175.481074" y="132.154688" style="fill: #808080; stroke: #808080"/>
     <use xlink:href="#m24bfc5f85c" x="174.380578" y="168.244104" style="fill: #808080; stroke: #808080"/>
     <use xlink:href="#m24bfc5f85c" x="171.131303" y="69.744509" style="fill: #808080; stroke: #808080"/>
     <use xlink:href="#m24bfc5f85c" x="174.350448" y="164.746999" style="fill: #808080; stroke: #808080"/>
     <use xlink:href="#m24bfc5f85c" x="173.256642" y="184.318704" style="fill: #808080; stroke: #808080"/>
    </g>
   </g>
   <g id="PathCollection_5">
    <g clip-path="url(#p464e3d4b18)">
     <use xlink:href="#m24bfc5f85c" x="203.654179" y="160.363236" style="fill: #808080; stroke: #808080"/>
     <use xlink:href="#m24bfc5f85c" x="205.641692" y="165.853565" style="fill: #808080; stroke: #808080"/>
     <use xlink:href="#m24bfc5f85c" x="206.288449" y="189.583055" style="fill: #808080; stroke: #808080"/>
     <use xlink:href="#m24bfc5f85c" x="206.134643" y="179.795942" style="fill: #808080; stroke: #808080"/>
     <use xlink:href="#m24bfc5f85c" x="203.403857" y="195.649414" style="fill: #808080; stroke: #808080"/>
     <use xlink:href="#m24bfc5f85c" x="204.221328" y="203.392298" style="fill: #808080; stroke: #808080"/>
     <use xlink:href="#m24bfc5f85c" x="205.209188" y="189.947152" style="fill: #808080; stroke: #808080"/>
     <use xlink:href="#m24bfc5f85c" x="206.202917" y="125.046424" style="fill: #808080; stroke: #808080"/>
     <use xlink:href="#m24bfc5f85c" x="203.959182" y="135.833263" style="fill: #808080; stroke: #808080"/>
     <use xlink:href="#m24bfc5f85c" x="204.411895" y="198.926756" style="fill: #808080; stroke: #808080"/>
     <use xlink:href="#m24bfc5f85c" x="202.99186" y="46.998318" style="fill: #808080; stroke: #808080"/>
     <use xlink:href="#m24bfc5f85c" x="202.853243" y="170.438182" style="fill: #808080; stroke: #808080"/>
     <use xlink:href="#m24bfc5f85c" x="205.951479" y="182.246751" style="fill: #808080; stroke: #808080"/>
    </g>
   </g>
   <g id="PathCollection_6">
    <g clip-path="url(#p464e3d4b18)">
     <use xlink:href="#m24bfc5f85c" x="237.63776" y="207.375851" style="fill: #808080; stroke: #808080"/>
     <use xlink:href="#m24bfc5f85c" x="235.434851" y="181.15317" style="fill: #808080; stroke: #808080"/>
     <use xlink:href="#m24bfc5f85c" x="237.093751" y="204.336819" style="fill: #808080; stroke: #808080"/>
     <use xlink:href="#m24bfc5f85c" x="236.1037" y="200.980014" style="fill: #808080; stroke: #808080"/>
     <use xlink:href="#m24bfc5f85c" x="234.550896" y="169.299317" style="fill: #808080; stroke: #808080"/>
     <use xlink:href="#m24bfc5f85c" x="236.103329" y="183.604258" style="fill: #808080; stroke: #808080"/>
     <use xlink:href="#m24bfc5f85c" x="237.91816" y="184.489483" style="fill: #808080; stroke: #808080"/>
     <use xlink:href="#m24bfc5f85c" x="235.490661" y="160.832046" style="fill: #808080; stroke: #808080"/>
     <use xlink:href="#m24bfc5f85c" x="237.959199" y="95.271629" style="fill: #808080; stroke: #808080"/>
     <use xlink:href="#m24bfc5f85c" x="231.505267" y="197.302556" style="fill: #808080; stroke: #808080"/>
     <use xlink:href="#m24bfc5f85c" x="236.813607" y="146.428906" style="fill: #808080; stroke: #808080"/>
     <use xlink:href="#m24bfc5f85c" x="235.680178" y="140.396351" style="fill: #808080; stroke: #808080"/>
     <use xlink:href="#m24bfc5f85c" x="235.084734" y="96.79141" style="fill: #808080; stroke: #808080"/>
    </g>
   </g>
   <g id="PathCollection_7">
    <g clip-path="url(#p464e3d4b18)">
     <use xlink:href="#m24bfc5f85c" x="266.535114" y="208.402353" style="fill: #808080; stroke: #808080"/>
     <use xlink:href="#m24bfc5f85c" x="263.327991" y="128.79452" style="fill: #808080; stroke: #808080"/>
     <use xlink:href="#m24bfc5f85c" x="266.054766" y="178.52563" style="fill: #808080; stroke: #808080"/>
     <use xlink:href="#m24bfc5f85c" x="266.944389" y="147.785754" style="fill: #808080; stroke: #808080"/>
     <use xlink:href="#m24bfc5f85c" x="268.673063" y="187.724937" style="fill: #808080; stroke: #808080"/>
     <use xlink:href="#m24bfc5f85c" x="265.594213" y="201.996091" style="fill: #808080; stroke: #808080"/>
     <use xlink:href="#m24bfc5f85c" x="265.146577" y="162.311414" style="fill: #808080; stroke: #808080"/>
     <use xlink:href="#m24bfc5f85c" x="265.619682" y="142.029133" style="fill: #808080; stroke: #808080"/>
     <use xlink:href="#m24bfc5f85c" x="267.805485" y="192.40215" style="fill: #808080; stroke: #808080"/>
     <use xlink:href="#m24bfc5f85c" x="266.900644" y="187.605144" style="fill: #808080; stroke: #808080"/>
     <use xlink:href="#m24bfc5f85c" x="265.576491" y="172.777339" style="fill: #808080; stroke: #808080"/>
     <use xlink:href="#m24bfc5f85c" x="267.185239" y="125.109712" style="fill: #808080; stroke: #808080"/>
     <use xlink:href="#m24bfc5f85c" x="266.543315" y="169.354633" style="fill: #808080; stroke: #808080"/>
    </g>
   </g>
   <g id="PathCollection_8">
    <g clip-path="url(#p464e3d4b18)">
     <use xlink:href="#m24bfc5f85c" x="298.735272" y="165.153552" style="fill: #808080; stroke: #808080"/>
     <use xlink:href="#m24bfc5f85c" x="296.158415" y="129.601999" style="fill: #808080; stroke: #808080"/>
     <use xlink:href="#m24bfc5f85c" x="296.735869" y="183.279667" style="fill: #808080; stroke: #808080"/>
     <use xlink:href="#m24bfc5f85c" x="296.636469" y="207.751774" style="fill: #808080; stroke: #808080"/>
     <use xlink:href="#m24bfc5f85c" x="294.983949" y="77.312659" style="fill: #808080; stroke: #808080"/>
     <use xlink:href="#m24bfc5f85c" x="297.697981" y="119.860562" style="fill: #808080; stroke: #808080"/>
     <use xlink:href="#m24bfc5f85c" x="297.643897" y="156.195312" style="fill: #808080; stroke: #808080"/>
     <use xlink:href="#m24bfc5f85c" x="297.249137" y="194.32739" style="fill: #808080; stroke: #808080"/>
     <use xlink:href="#m24bfc5f85c" x="296.879427" y="189.423086" style="fill: #808080; stroke: #808080"/>
     <use xlink:href="#m24bfc5f85c" x="295.058206" y="208.823137" style="fill: #808080; stroke: #808080"/>
     <use xlink:href="#m24bfc5f85c" x="296.592454" y="207.180465" style="fill: #808080; stroke: #808080"/>
     <use xlink:href="#m24bfc5f85c" x="296.712653" y="198.672433" style="fill: #808080; stroke: #808080"/>
     <use xlink:href="#m24bfc5f85c" x="296.003831" y="205.823299" style="fill: #808080; stroke: #808080"/>
    </g>
   </g>
   <g id="PathCollection_9">
    <g clip-path="url(#p464e3d4b18)">
     <use xlink:href="#m24bfc5f85c" x="327.840151" y="137.788628" style="fill: #808080; stroke: #808080"/>
     <use xlink:href="#m24bfc5f85c" x="328.712117" y="149.236493" style="fill: #808080; stroke: #808080"/>
     <use xlink:href="#m24bfc5f85c" x="330.998137" y="128.293328" style="fill: #808080; stroke: #808080"/>
     <use xlink:href="#m24bfc5f85c" x="328.358182" y="128.606133" style="fill: #808080; stroke: #808080"/>
     <use xlink:href="#m24bfc5f85c" x="328.486157" y="182.33577" style="fill: #808080; stroke: #808080"/>
     <use xlink:href="#m24bfc5f85c" x="327.974092" y="143.427712" style="fill: #808080; stroke: #808080"/>
     <use xlink:href="#m24bfc5f85c" x="325.129435" y="98.928931" style="fill: #808080; stroke: #808080"/>
     <use xlink:href="#m24bfc5f85c" x="328.048021" y="112.752679" style="fill: #808080; stroke: #808080"/>
     <use xlink:href="#m24bfc5f85c" x="328.181814" y="63.227999" style="fill: #808080; stroke: #808080"/>
     <use xlink:href="#m24bfc5f85c" x="331.888179" y="207.296802" style="fill: #808080; stroke: #808080"/>
     <use xlink:href="#m24bfc5f85c" x="327.792222" y="160.188289" style="fill: #808080; stroke: #808080"/>
     <use xlink:href="#m24bfc5f85c" x="328.554017" y="201.994156" style="fill: #808080; stroke: #808080"/>
     <use xlink:href="#m24bfc5f85c" x="328.035377" y="173.429706" style="fill: #808080; stroke: #808080"/>
    </g>
   </g>
   <g id="PathCollection_10">
    <g clip-path="url(#p464e3d4b18)">
     <use xlink:href="#m24bfc5f85c" x="357.134032" y="199.456201" style="fill: #808080; stroke: #808080"/>
     <use xlink:href="#m24bfc5f85c" x="360.699253" y="167.642382" style="fill: #808080; stroke: #808080"/>
     <use xlink:href="#m24bfc5f85c" x="360.096351" y="130.725962" style="fill: #808080; stroke: #808080"/>
     <use xlink:href="#m24bfc5f85c" x="360.156656" y="145.533911" style="fill: #808080; stroke: #808080"/>
     <use xlink:href="#m24bfc5f85c" x="357.533958" y="191.942956" style="fill: #808080; stroke: #808080"/>
     <use xlink:href="#m24bfc5f85c" x="361.100228" y="195.492131" style="fill: #808080; stroke: #808080"/>
     <use xlink:href="#m24bfc5f85c" x="356.77439" y="165.881351" style="fill: #808080; stroke: #808080"/>
     <use xlink:href="#m24bfc5f85c" x="359.84174" y="81.3133" style="fill: #808080; stroke: #808080"/>
     <use xlink:href="#m24bfc5f85c" x="362.315104" y="166.826709" style="fill: #808080; stroke: #808080"/>
     <use xlink:href="#m24bfc5f85c" x="357.408795" y="180.921304" style="fill: #808080; stroke: #808080"/>
     <use xlink:href="#m24bfc5f85c" x="358.063134" y="121.741408" style="fill: #808080; stroke: #808080"/>
     <use xlink:href="#m24bfc5f85c" x="359.090282" y="160.867193" style="fill: #808080; stroke: #808080"/>
     <use xlink:href="#m24bfc5f85c" x="358.160029" y="182.428744" style="fill: #808080; stroke: #808080"/>
    </g>
   </g>
   <g id="PathCollection_11">
    <g clip-path="url(#p464e3d4b18)">
     <use xlink:href="#m24bfc5f85c" x="387.39253" y="207.63267" style="fill: #808080; stroke: #808080"/>
     <use xlink:href="#m24bfc5f85c" x="389.889998" y="188.412756" style="fill: #808080; stroke: #808080"/>
     <use xlink:href="#m24bfc5f85c" x="388.145768" y="207.843602" style="fill: #808080; stroke: #808080"/>
     <use xlink:href="#m24bfc5f85c" x="390.514709" y="155.859401" style="fill: #808080; stroke: #808080"/>
     <use xlink:href="#m24bfc5f85c" x="388.366143" y="205.138563" style="fill: #808080; stroke: #808080"/>
     <use xlink:href="#m24bfc5f85c" x="392.17484" y="175.452924" style="fill: #808080; stroke: #808080"/>
     <use xlink:href="#m24bfc5f85c" x="388.576171" y="188.591201" style="fill: #808080; stroke: #808080"/>
     <use xlink:href="#m24bfc5f85c" x="389.287505" y="84.367414" style="fill: #808080; stroke: #808080"/>
     <use xlink:href="#m24bfc5f85c" x="391.039003" y="205.514367" style="fill: #808080; stroke: #808080"/>
     <use xlink:href="#m24bfc5f85c" x="387.885783" y="192.538871" style="fill: #808080; stroke: #808080"/>
     <use xlink:href="#m24bfc5f85c" x="390.135078" y="200.423568" style="fill: #808080; stroke: #808080"/>
     <use xlink:href="#m24bfc5f85c" x="391.800363" y="143.341229" style="fill: #808080; stroke: #808080"/>
     <use xlink:href="#m24bfc5f85c" x="387.304892" y="206.306353" style="fill: #808080; stroke: #808080"/>
    </g>
   </g>
   <g id="PathCollection_12">
    <g clip-path="url(#p464e3d4b18)">
     <use xlink:href="#m24bfc5f85c" x="420.91669" y="107.166868" style="fill: #808080; stroke: #808080"/>
     <use xlink:href="#m24bfc5f85c" x="421.032752" y="84.938609" style="fill: #808080; stroke: #808080"/>
     <use xlink:href="#m24bfc5f85c" x="421.837784" y="111.54177" style="fill: #808080; stroke: #808080"/>
     <use xlink:href="#m24bfc5f85c" x="418.724061" y="80.465381" style="fill: #808080; stroke: #808080"/>
     <use xlink:href="#m24bfc5f85c" x="418.595263" y="91.658652" style="fill: #808080; stroke: #808080"/>
     <use xlink:href="#m24bfc5f85c" x="421.436947" y="126.059191" style="fill: #808080; stroke: #808080"/>
     <use xlink:href="#m24bfc5f85c" x="421.089978" y="161.544303" style="fill: #808080; stroke: #808080"/>
     <use xlink:href="#m24bfc5f85c" x="421.018269" y="132.064051" style="fill: #808080; stroke: #808080"/>
     <use xlink:href="#m24bfc5f85c" x="421.166269" y="96.74955" style="fill: #808080; stroke: #808080"/>
     <use xlink:href="#m24bfc5f85c" x="419.583055" y="53.290901" style="fill: #808080; stroke: #808080"/>
     <use xlink:href="#m24bfc5f85c" x="420.990138" y="137.155373" style="fill: #808080; stroke: #808080"/>
     <use xlink:href="#m24bfc5f85c" x="421.083943" y="203.601272" style="fill: #808080; stroke: #808080"/>
     <use xlink:href="#m24bfc5f85c" x="419.53011" y="122.288067" style="fill: #808080; stroke: #808080"/>
    </g>
   </g>
   <g id="PathCollection_13">
    <g clip-path="url(#p464e3d4b18)">
     <use xlink:href="#m24bfc5f85c" x="454.357319" y="176.596956" style="fill: #808080; stroke: #808080"/>
     <use xlink:href="#m24bfc5f85c" x="452.210411" y="205.20166" style="fill: #808080; stroke: #808080"/>
     <use xlink:href="#m24bfc5f85c" x="449.642133" y="127.46984" style="fill: #808080; stroke: #808080"/>
     <use xlink:href="#m24bfc5f85c" x="452.492237" y="123.136968" style="fill: #808080; stroke: #808080"/>
     <use xlink:href="#m24bfc5f85c" x="449.976247" y="177.597861" style="fill: #808080; stroke: #808080"/>
     <use xlink:href="#m24bfc5f85c" x="452.693565" y="204.141648" style="fill: #808080; stroke: #808080"/>
     <use xlink:href="#m24bfc5f85c" x="453.266578" y="200.976067" style="fill: #808080; stroke: #808080"/>
     <use xlink:href="#m24bfc5f85c" x="450.213773" y="159.972166" style="fill: #808080; stroke: #808080"/>
     <use xlink:href="#m24bfc5f85c" x="452.965474" y="109.696012" style="fill: #808080; stroke: #808080"/>
     <use xlink:href="#m24bfc5f85c" x="452.116246" y="195.647294" style="fill: #808080; stroke: #808080"/>
     <use xlink:href="#m24bfc5f85c" x="452.747511" y="162.711391" style="fill: #808080; stroke: #808080"/>
     <use xlink:href="#m24bfc5f85c" x="454.405161" y="196.701594" style="fill: #808080; stroke: #808080"/>
     <use xlink:href="#m24bfc5f85c" x="451.101097" y="160.194527" style="fill: #808080; stroke: #808080"/>
    </g>
   </g>
   <g id="PathCollection_14">
    <g clip-path="url(#p464e3d4b18)">
     <use xlink:href="#m24bfc5f85c" x="481.164695" y="202.562126" style="fill: #808080; stroke: #808080"/>
     <use xlink:href="#m24bfc5f85c" x="480.955273" y="172.974063" style="fill: #808080; stroke: #808080"/>
     <use xlink:href="#m24bfc5f85c" x="481.068953" y="150.344993" style="fill: #808080; stroke: #808080"/>
     <use xlink:href="#m24bfc5f85c" x="482.208325" y="191.470719" style="fill: #808080; stroke: #808080"/>
     <use xlink:href="#m24bfc5f85c" x="482.853432" y="207.524499" style="fill: #808080; stroke: #808080"/>
     <use xlink:href="#m24bfc5f85c" x="482.754008" y="203.367163" style="fill: #808080; stroke: #808080"/>
     <use xlink:href="#m24bfc5f85c" x="483.603079" y="144.092329" style="fill: #808080; stroke: #808080"/>
     <use xlink:href="#m24bfc5f85c" x="482.347299" y="205.458382" style="fill: #808080; stroke: #808080"/>
     <use xlink:href="#m24bfc5f85c" x="484.569152" y="155.971084" style="fill: #808080; stroke: #808080"/>
     <use xlink:href="#m24bfc5f85c" x="481.919043" y="183.943075" style="fill: #808080; stroke: #808080"/>
     <use xlink:href="#m24bfc5f85c" x="486.522789" y="173.811017" style="fill: #808080; stroke: #808080"/>
     <use xlink:href="#m24bfc5f85c" x="483.292264" y="148.734025" style="fill: #808080; stroke: #808080"/>
     <use xlink:href="#m24bfc5f85c" x="481.00518" y="179.921866" style="fill: #808080; stroke: #808080"/>
    </g>
   </g>
   <g id="PathCollection_15">
    <g clip-path="url(#p464e3d4b18)">
     <use xlink:href="#m24bfc5f85c" x="511.523184" y="180.190658" style="fill: #808080; stroke: #808080"/>
     <use xlink:href="#m24bfc5f85c" x="513.919068" y="208.221691" style="fill: #808080; stroke: #808080"/>
     <use xlink:href="#m24bfc5f85c" x="512.830246" y="147.479582" style="fill: #808080; stroke: #808080"/>
     <use xlink:href="#m24bfc5f85c" x="514.276173" y="206.252208" style="fill: #808080; stroke: #808080"/>
     <use xlink:href="#m24bfc5f85c" x="513.904825" y="180.839809" style="fill: #808080; stroke: #808080"/>
     <use xlink:href="#m24bfc5f85c" x="513.062581" y="160.145359" style="fill: #808080; stroke: #808080"/>
     <use xlink:href="#m24bfc5f85c" x="511.86883" y="191.992955" style="fill: #808080; stroke: #808080"/>
     <use xlink:href="#m24bfc5f85c" x="510.838436" y="197.004652" style="fill: #808080; stroke: #808080"/>
     <use xlink:href="#m24bfc5f85c" x="512.486214" y="156.37422" style="fill: #808080; stroke: #808080"/>
     <use xlink:href="#m24bfc5f85c" x="514.495806" y="196.348885" style="fill: #808080; stroke: #808080"/>
     <use xlink:href="#m24bfc5f85c" x="513.505126" y="109.510219" style="fill: #808080; stroke: #808080"/>
     <use xlink:href="#m24bfc5f85c" x="511.253504" y="194.593753" style="fill: #808080; stroke: #808080"/>
     <use xlink:href="#m24bfc5f85c" x="513.442022" y="192.297913" style="fill: #808080; stroke: #808080"/>
    </g>
   </g>
   <g id="line2d_36">
    <path d="M 42.12365 55.728938 
L 50.15885 52.756777 
" style="fill: none; stroke: #000000; stroke-linecap: square"/>
   </g>
   <g id="line2d_37">
    <path d="M 42.12365 57.586537 
L 50.15885 54.614377 
" style="fill: none; stroke: #000000; stroke-linecap: square"/>
   </g>
   <g id="patch_18">
    <path d="M 46.14125 208.980938 
L 46.14125 23.220937 
" style="fill: none; stroke: #000000; stroke-width: 0.8; stroke-linejoin: miter; stroke-linecap: square"/>
   </g>
   <g id="patch_19">
    <path d="M 548.34125 208.980938 
L 548.34125 23.220937 
" style="fill: none; stroke: #000000; stroke-width: 0.8; stroke-linejoin: miter; stroke-linecap: square"/>
   </g>
   <g id="patch_20">
    <path d="M 46.14125 208.980938 
L 548.34125 208.980938 
" style="fill: none; stroke: #000000; stroke-width: 0.8; stroke-linejoin: miter; stroke-linecap: square"/>
   </g>
   <g id="patch_21">
    <path d="M 46.14125 23.220937 
L 548.34125 23.220937 
" style="fill: none; stroke: #000000; stroke-width: 0.8; stroke-linejoin: miter; stroke-linecap: square"/>
   </g>
   <g id="text_10">
    <!-- EVA 1.4B -->
    <g transform="translate(50.152906 247.506783) rotate(-45) scale(0.1 -0.1)">
     <defs>
      <path id="ArialMT-45" d="M 506 0 
L 506 4581 
L 3819 4581 
L 3819 4041 
L 1113 4041 
L 1113 2638 
L 3647 2638 
L 3647 2100 
L 1113 2100 
L 1113 541 
L 3925 541 
L 3925 0 
L 506 0 
z
" transform="scale(0.015625)"/>
      <path id="ArialMT-56" d="M 1803 0 
L 28 4581 
L 684 4581 
L 1875 1253 
Q 2019 853 2116 503 
Q 2222 878 2363 1253 
L 3600 4581 
L 4219 4581 
L 2425 0 
L 1803 0 
z
" transform="scale(0.015625)"/>
      <path id="ArialMT-41" d="M -9 0 
L 1750 4581 
L 2403 4581 
L 4278 0 
L 3588 0 
L 3053 1388 
L 1138 1388 
L 634 0 
L -9 0 
z
M 1313 1881 
L 2866 1881 
L 2388 3150 
Q 2169 3728 2063 4100 
Q 1975 3659 1816 3225 
L 1313 1881 
z
" transform="scale(0.015625)"/>
      <path id="ArialMT-42" d="M 469 0 
L 469 4581 
L 2188 4581 
Q 2713 4581 3030 4442 
Q 3347 4303 3526 4014 
Q 3706 3725 3706 3409 
Q 3706 3116 3547 2856 
Q 3388 2597 3066 2438 
Q 3481 2316 3704 2022 
Q 3928 1728 3928 1328 
Q 3928 1006 3792 729 
Q 3656 453 3456 303 
Q 3256 153 2954 76 
Q 2653 0 2216 0 
L 469 0 
z
M 1075 2656 
L 2066 2656 
Q 2469 2656 2644 2709 
Q 2875 2778 2992 2937 
Q 3109 3097 3109 3338 
Q 3109 3566 3000 3739 
Q 2891 3913 2687 3977 
Q 2484 4041 1991 4041 
L 1075 4041 
L 1075 2656 
z
M 1075 541 
L 2216 541 
Q 2509 541 2628 563 
Q 2838 600 2978 687 
Q 3119 775 3209 942 
Q 3300 1109 3300 1328 
Q 3300 1584 3169 1773 
Q 3038 1963 2805 2039 
Q 2572 2116 2134 2116 
L 1075 2116 
L 1075 541 
z
" transform="scale(0.015625)"/>
     </defs>
     <use xlink:href="#ArialMT-45"/>
     <use xlink:href="#ArialMT-56" transform="translate(66.699219 0)"/>
     <use xlink:href="#ArialMT-41" transform="translate(126.023438 0)"/>
     <use xlink:href="#ArialMT-20" transform="translate(187.222656 0)"/>
     <use xlink:href="#ArialMT-31" transform="translate(215.005859 0)"/>
     <use xlink:href="#ArialMT-2e" transform="translate(270.621094 0)"/>
     <use xlink:href="#ArialMT-34" transform="translate(298.404297 0)"/>
     <use xlink:href="#ArialMT-42" transform="translate(354.019531 0)"/>
    </g>
   </g>
   <g id="text_11">
    <!-- GPT | 1.4B -->
    <g style="fill: #ffa45b" transform="translate(56.429064 256.939128) rotate(-45) scale(0.09 -0.09)">
     <defs>
      <path id="ArialMT-47" d="M 2638 1797 
L 2638 2334 
L 4578 2338 
L 4578 638 
Q 4131 281 3656 101 
Q 3181 -78 2681 -78 
Q 2006 -78 1454 211 
Q 903 500 622 1047 
Q 341 1594 341 2269 
Q 341 2938 620 3517 
Q 900 4097 1425 4378 
Q 1950 4659 2634 4659 
Q 3131 4659 3532 4498 
Q 3934 4338 4162 4050 
Q 4391 3763 4509 3300 
L 3963 3150 
Q 3859 3500 3706 3700 
Q 3553 3900 3268 4020 
Q 2984 4141 2638 4141 
Q 2222 4141 1919 4014 
Q 1616 3888 1430 3681 
Q 1244 3475 1141 3228 
Q 966 2803 966 2306 
Q 966 1694 1177 1281 
Q 1388 869 1791 669 
Q 2194 469 2647 469 
Q 3041 469 3416 620 
Q 3791 772 3984 944 
L 3984 1797 
L 2638 1797 
z
" transform="scale(0.015625)"/>
      <path id="ArialMT-50" d="M 494 0 
L 494 4581 
L 2222 4581 
Q 2678 4581 2919 4538 
Q 3256 4481 3484 4323 
Q 3713 4166 3852 3881 
Q 3991 3597 3991 3256 
Q 3991 2672 3619 2267 
Q 3247 1863 2275 1863 
L 1100 1863 
L 1100 0 
L 494 0 
z
M 1100 2403 
L 2284 2403 
Q 2872 2403 3119 2622 
Q 3366 2841 3366 3238 
Q 3366 3525 3220 3729 
Q 3075 3934 2838 4000 
Q 2684 4041 2272 4041 
L 1100 4041 
L 1100 2403 
z
" transform="scale(0.015625)"/>
      <path id="ArialMT-54" d="M 1659 0 
L 1659 4041 
L 150 4041 
L 150 4581 
L 3781 4581 
L 3781 4041 
L 2266 4041 
L 2266 0 
L 1659 0 
z
" transform="scale(0.015625)"/>
     </defs>
     <use xlink:href="#ArialMT-47"/>
     <use xlink:href="#ArialMT-50" transform="translate(77.783203 0)"/>
     <use xlink:href="#ArialMT-54" transform="translate(144.482422 0)"/>
     <use xlink:href="#ArialMT-20" transform="translate(203.816406 0)"/>
     <use xlink:href="#ArialMT-7c" transform="translate(231.599609 0)"/>
     <use xlink:href="#ArialMT-20" transform="translate(257.576172 0)"/>
     <use xlink:href="#ArialMT-31" transform="translate(285.359375 0)"/>
     <use xlink:href="#ArialMT-2e" transform="translate(340.974609 0)"/>
     <use xlink:href="#ArialMT-34" transform="translate(368.757812 0)"/>
     <use xlink:href="#ArialMT-42" transform="translate(424.373047 0)"/>
    </g>
   </g>
   <g id="text_12">
    <!-- EVA 21M -->
    <g transform="translate(81.791648 246.715708) rotate(-45) scale(0.1 -0.1)">
     <defs>
      <path id="ArialMT-4d" d="M 475 0 
L 475 4581 
L 1388 4581 
L 2472 1338 
Q 2622 884 2691 659 
Q 2769 909 2934 1394 
L 4031 4581 
L 4847 4581 
L 4847 0 
L 4263 0 
L 4263 3834 
L 2931 0 
L 2384 0 
L 1059 3900 
L 1059 0 
L 475 0 
z
" transform="scale(0.015625)"/>
     </defs>
     <use xlink:href="#ArialMT-45"/>
     <use xlink:href="#ArialMT-56" transform="translate(66.699219 0)"/>
     <use xlink:href="#ArialMT-41" transform="translate(126.023438 0)"/>
     <use xlink:href="#ArialMT-20" transform="translate(187.222656 0)"/>
     <use xlink:href="#ArialMT-32" transform="translate(215.005859 0)"/>
     <use xlink:href="#ArialMT-31" transform="translate(270.621094 0)"/>
     <use xlink:href="#ArialMT-4d" transform="translate(326.236328 0)"/>
    </g>
   </g>
   <g id="text_13">
    <!-- GPT | 21M -->
    <g style="fill: #ffa45b" transform="translate(87.988698 256.22716) rotate(-45) scale(0.09 -0.09)">
     <use xlink:href="#ArialMT-47"/>
     <use xlink:href="#ArialMT-50" transform="translate(77.783203 0)"/>
     <use xlink:href="#ArialMT-54" transform="translate(144.482422 0)"/>
     <use xlink:href="#ArialMT-20" transform="translate(203.816406 0)"/>
     <use xlink:href="#ArialMT-7c" transform="translate(231.599609 0)"/>
     <use xlink:href="#ArialMT-20" transform="translate(257.576172 0)"/>
     <use xlink:href="#ArialMT-32" transform="translate(285.359375 0)"/>
     <use xlink:href="#ArialMT-31" transform="translate(340.974609 0)"/>
     <use xlink:href="#ArialMT-4d" transform="translate(396.589844 0)"/>
    </g>
   </g>
   <g id="text_14">
    <!-- RNAFM -->
    <g transform="translate(116.458795 242.896226) rotate(-45) scale(0.1 -0.1)">
     <defs>
      <path id="ArialMT-52" d="M 503 0 
L 503 4581 
L 2534 4581 
Q 3147 4581 3465 4457 
Q 3784 4334 3975 4021 
Q 4166 3709 4166 3331 
Q 4166 2844 3850 2509 
Q 3534 2175 2875 2084 
Q 3116 1969 3241 1856 
Q 3506 1613 3744 1247 
L 4541 0 
L 3778 0 
L 3172 953 
Q 2906 1366 2734 1584 
Q 2563 1803 2427 1890 
Q 2291 1978 2150 2013 
Q 2047 2034 1813 2034 
L 1109 2034 
L 1109 0 
L 503 0 
z
M 1109 2559 
L 2413 2559 
Q 2828 2559 3062 2645 
Q 3297 2731 3419 2920 
Q 3541 3109 3541 3331 
Q 3541 3656 3305 3865 
Q 3069 4075 2559 4075 
L 1109 4075 
L 1109 2559 
z
" transform="scale(0.015625)"/>
      <path id="ArialMT-4e" d="M 488 0 
L 488 4581 
L 1109 4581 
L 3516 984 
L 3516 4581 
L 4097 4581 
L 4097 0 
L 3475 0 
L 1069 3600 
L 1069 0 
L 488 0 
z
" transform="scale(0.015625)"/>
      <path id="ArialMT-46" d="M 525 0 
L 525 4581 
L 3616 4581 
L 3616 4041 
L 1131 4041 
L 1131 2622 
L 3281 2622 
L 3281 2081 
L 1131 2081 
L 1131 0 
L 525 0 
z
" transform="scale(0.015625)"/>
     </defs>
     <use xlink:href="#ArialMT-52"/>
     <use xlink:href="#ArialMT-4e" transform="translate(72.216797 0)"/>
     <use xlink:href="#ArialMT-41" transform="translate(144.433594 0)"/>
     <use xlink:href="#ArialMT-46" transform="translate(211.132812 0)"/>
     <use xlink:href="#ArialMT-4d" transform="translate(272.216797 0)"/>
    </g>
   </g>
   <g id="text_15">
    <!-- BERT | 99.5M -->
    <g style="fill: #ffa45b" transform="translate(109.749821 265.313703) rotate(-45) scale(0.09 -0.09)">
     <use xlink:href="#ArialMT-42"/>
     <use xlink:href="#ArialMT-45" transform="translate(66.699219 0)"/>
     <use xlink:href="#ArialMT-52" transform="translate(133.398438 0)"/>
     <use xlink:href="#ArialMT-54" transform="translate(203.865234 0)"/>
     <use xlink:href="#ArialMT-20" transform="translate(263.199219 0)"/>
     <use xlink:href="#ArialMT-7c" transform="translate(290.982422 0)"/>
     <use xlink:href="#ArialMT-20" transform="translate(316.958984 0)"/>
     <use xlink:href="#ArialMT-39" transform="translate(344.742188 0)"/>
     <use xlink:href="#ArialMT-39" transform="translate(400.357422 0)"/>
     <use xlink:href="#ArialMT-2e" transform="translate(455.972656 0)"/>
     <use xlink:href="#ArialMT-35" transform="translate(483.755859 0)"/>
     <use xlink:href="#ArialMT-4d" transform="translate(539.371094 0)"/>
    </g>
   </g>
   <g id="text_16">
    <!-- RNABERT -->
    <g transform="translate(138.7803 251.422387) rotate(-45) scale(0.1 -0.1)">
     <use xlink:href="#ArialMT-52"/>
     <use xlink:href="#ArialMT-4e" transform="translate(72.216797 0)"/>
     <use xlink:href="#ArialMT-41" transform="translate(144.433594 0)"/>
     <use xlink:href="#ArialMT-42" transform="translate(211.132812 0)"/>
     <use xlink:href="#ArialMT-45" transform="translate(277.832031 0)"/>
     <use xlink:href="#ArialMT-52" transform="translate(344.53125 0)"/>
     <use xlink:href="#ArialMT-54" transform="translate(414.998047 0)"/>
    </g>
   </g>
   <g id="text_17">
    <!-- BERT | 1.1M -->
    <g style="fill: #ffa45b" transform="translate(144.136446 261.774744) rotate(-45) scale(0.09 -0.09)">
     <use xlink:href="#ArialMT-42"/>
     <use xlink:href="#ArialMT-45" transform="translate(66.699219 0)"/>
     <use xlink:href="#ArialMT-52" transform="translate(133.398438 0)"/>
     <use xlink:href="#ArialMT-54" transform="translate(203.865234 0)"/>
     <use xlink:href="#ArialMT-20" transform="translate(263.199219 0)"/>
     <use xlink:href="#ArialMT-7c" transform="translate(290.982422 0)"/>
     <use xlink:href="#ArialMT-20" transform="translate(316.958984 0)"/>
     <use xlink:href="#ArialMT-31" transform="translate(344.742188 0)"/>
     <use xlink:href="#ArialMT-2e" transform="translate(400.357422 0)"/>
     <use xlink:href="#ArialMT-31" transform="translate(428.140625 0)"/>
     <use xlink:href="#ArialMT-4d" transform="translate(483.755859 0)"/>
    </g>
   </g>
   <g id="text_18">
    <!-- RNAMSM -->
    <g transform="translate(171.866401 249.183952) rotate(-45) scale(0.1 -0.1)">
     <use xlink:href="#ArialMT-52"/>
     <use xlink:href="#ArialMT-4e" transform="translate(72.216797 0)"/>
     <use xlink:href="#ArialMT-41" transform="translate(144.433594 0)"/>
     <use xlink:href="#ArialMT-4d" transform="translate(211.132812 0)"/>
     <use xlink:href="#ArialMT-53" transform="translate(294.433594 0)"/>
     <use xlink:href="#ArialMT-4d" transform="translate(361.132812 0)"/>
    </g>
   </g>
   <g id="text_19">
    <!-- BERT | 96.5M -->
    <g style="fill: #ffa45b" transform="translate(171.445153 265.313703) rotate(-45) scale(0.09 -0.09)">
     <defs>
      <path id="ArialMT-36" d="M 3184 3459 
L 2625 3416 
Q 2550 3747 2413 3897 
Q 2184 4138 1850 4138 
Q 1581 4138 1378 3988 
Q 1113 3794 959 3422 
Q 806 3050 800 2363 
Q 1003 2672 1297 2822 
Q 1591 2972 1913 2972 
Q 2475 2972 2870 2558 
Q 3266 2144 3266 1488 
Q 3266 1056 3080 686 
Q 2894 316 2569 119 
Q 2244 -78 1831 -78 
Q 1128 -78 684 439 
Q 241 956 241 2144 
Q 241 3472 731 4075 
Q 1159 4600 1884 4600 
Q 2425 4600 2770 4297 
Q 3116 3994 3184 3459 
z
M 888 1484 
Q 888 1194 1011 928 
Q 1134 663 1356 523 
Q 1578 384 1822 384 
Q 2178 384 2434 671 
Q 2691 959 2691 1453 
Q 2691 1928 2437 2201 
Q 2184 2475 1800 2475 
Q 1419 2475 1153 2201 
Q 888 1928 888 1484 
z
" transform="scale(0.015625)"/>
     </defs>
     <use xlink:href="#ArialMT-42"/>
     <use xlink:href="#ArialMT-45" transform="translate(66.699219 0)"/>
     <use xlink:href="#ArialMT-52" transform="translate(133.398438 0)"/>
     <use xlink:href="#ArialMT-54" transform="translate(203.865234 0)"/>
     <use xlink:href="#ArialMT-20" transform="translate(263.199219 0)"/>
     <use xlink:href="#ArialMT-7c" transform="translate(290.982422 0)"/>
     <use xlink:href="#ArialMT-20" transform="translate(316.958984 0)"/>
     <use xlink:href="#ArialMT-39" transform="translate(344.742188 0)"/>
     <use xlink:href="#ArialMT-36" transform="translate(400.357422 0)"/>
     <use xlink:href="#ArialMT-2e" transform="translate(455.972656 0)"/>
     <use xlink:href="#ArialMT-35" transform="translate(483.755859 0)"/>
     <use xlink:href="#ArialMT-4d" transform="translate(539.371094 0)"/>
    </g>
   </g>
   <g id="text_20">
    <!-- ERNIE-RNA -->
    <g transform="translate(195.245251 256.652768) rotate(-45) scale(0.1 -0.1)">
     <defs>
      <path id="ArialMT-49" d="M 597 0 
L 597 4581 
L 1203 4581 
L 1203 0 
L 597 0 
z
" transform="scale(0.015625)"/>
      <path id="ArialMT-2d" d="M 203 1375 
L 203 1941 
L 1931 1941 
L 1931 1375 
L 203 1375 
z
" transform="scale(0.015625)"/>
     </defs>
     <use xlink:href="#ArialMT-45"/>
     <use xlink:href="#ArialMT-52" transform="translate(66.699219 0)"/>
     <use xlink:href="#ArialMT-4e" transform="translate(138.916016 0)"/>
     <use xlink:href="#ArialMT-49" transform="translate(211.132812 0)"/>
     <use xlink:href="#ArialMT-45" transform="translate(238.916016 0)"/>
     <use xlink:href="#ArialMT-2d" transform="translate(305.615234 0)"/>
     <use xlink:href="#ArialMT-52" transform="translate(338.916016 0)"/>
     <use xlink:href="#ArialMT-4e" transform="translate(411.132812 0)"/>
     <use xlink:href="#ArialMT-41" transform="translate(483.349609 0)"/>
    </g>
   </g>
   <g id="text_21">
    <!-- BERT | 86M -->
    <g style="fill: #ffa45b" transform="translate(207.599766 260.006756) rotate(-45) scale(0.09 -0.09)">
     <defs>
      <path id="ArialMT-38" d="M 1131 2484 
Q 781 2613 612 2850 
Q 444 3088 444 3419 
Q 444 3919 803 4259 
Q 1163 4600 1759 4600 
Q 2359 4600 2725 4251 
Q 3091 3903 3091 3403 
Q 3091 3084 2923 2848 
Q 2756 2613 2416 2484 
Q 2838 2347 3058 2040 
Q 3278 1734 3278 1309 
Q 3278 722 2862 322 
Q 2447 -78 1769 -78 
Q 1091 -78 675 323 
Q 259 725 259 1325 
Q 259 1772 486 2073 
Q 713 2375 1131 2484 
z
M 1019 3438 
Q 1019 3113 1228 2906 
Q 1438 2700 1772 2700 
Q 2097 2700 2305 2904 
Q 2513 3109 2513 3406 
Q 2513 3716 2298 3927 
Q 2084 4138 1766 4138 
Q 1444 4138 1231 3931 
Q 1019 3725 1019 3438 
z
M 838 1322 
Q 838 1081 952 856 
Q 1066 631 1291 507 
Q 1516 384 1775 384 
Q 2178 384 2440 643 
Q 2703 903 2703 1303 
Q 2703 1709 2433 1975 
Q 2163 2241 1756 2241 
Q 1359 2241 1098 1978 
Q 838 1716 838 1322 
z
" transform="scale(0.015625)"/>
     </defs>
     <use xlink:href="#ArialMT-42"/>
     <use xlink:href="#ArialMT-45" transform="translate(66.699219 0)"/>
     <use xlink:href="#ArialMT-52" transform="translate(133.398438 0)"/>
     <use xlink:href="#ArialMT-54" transform="translate(203.865234 0)"/>
     <use xlink:href="#ArialMT-20" transform="translate(263.199219 0)"/>
     <use xlink:href="#ArialMT-7c" transform="translate(290.982422 0)"/>
     <use xlink:href="#ArialMT-20" transform="translate(316.958984 0)"/>
     <use xlink:href="#ArialMT-38" transform="translate(344.742188 0)"/>
     <use xlink:href="#ArialMT-36" transform="translate(400.357422 0)"/>
     <use xlink:href="#ArialMT-4d" transform="translate(455.972656 0)"/>
    </g>
   </g>
   <g id="text_22">
    <!-- AIDO -->
    <g transform="translate(247.700553 235.045131) rotate(-45) scale(0.1 -0.1)">
     <defs>
      <path id="ArialMT-44" d="M 494 0 
L 494 4581 
L 2072 4581 
Q 2606 4581 2888 4516 
Q 3281 4425 3559 4188 
Q 3922 3881 4101 3404 
Q 4281 2928 4281 2316 
Q 4281 1794 4159 1391 
Q 4038 988 3847 723 
Q 3656 459 3429 307 
Q 3203 156 2883 78 
Q 2563 0 2147 0 
L 494 0 
z
M 1100 541 
L 2078 541 
Q 2531 541 2789 625 
Q 3047 709 3200 863 
Q 3416 1078 3536 1442 
Q 3656 1806 3656 2325 
Q 3656 3044 3420 3430 
Q 3184 3816 2847 3947 
Q 2603 4041 2063 4041 
L 1100 4041 
L 1100 541 
z
" transform="scale(0.015625)"/>
      <path id="ArialMT-4f" d="M 309 2231 
Q 309 3372 921 4017 
Q 1534 4663 2503 4663 
Q 3138 4663 3647 4359 
Q 4156 4056 4423 3514 
Q 4691 2972 4691 2284 
Q 4691 1588 4409 1038 
Q 4128 488 3612 205 
Q 3097 -78 2500 -78 
Q 1853 -78 1343 234 
Q 834 547 571 1087 
Q 309 1628 309 2231 
z
M 934 2222 
Q 934 1394 1379 917 
Q 1825 441 2497 441 
Q 3181 441 3623 922 
Q 4066 1403 4066 2288 
Q 4066 2847 3877 3264 
Q 3688 3681 3323 3911 
Q 2959 4141 2506 4141 
Q 1863 4141 1398 3698 
Q 934 3256 934 2222 
z
" transform="scale(0.015625)"/>
     </defs>
     <use xlink:href="#ArialMT-41"/>
     <use xlink:href="#ArialMT-49" transform="translate(66.699219 0)"/>
     <use xlink:href="#ArialMT-44" transform="translate(94.482422 0)"/>
     <use xlink:href="#ArialMT-4f" transform="translate(166.699219 0)"/>
    </g>
   </g>
   <g id="text_23">
    <!-- BERT | 1.6B -->
    <g style="fill: #ffa45b" transform="translate(237.735463 260.718725) rotate(-45) scale(0.09 -0.09)">
     <use xlink:href="#ArialMT-42"/>
     <use xlink:href="#ArialMT-45" transform="translate(66.699219 0)"/>
     <use xlink:href="#ArialMT-52" transform="translate(133.398438 0)"/>
     <use xlink:href="#ArialMT-54" transform="translate(203.865234 0)"/>
     <use xlink:href="#ArialMT-20" transform="translate(263.199219 0)"/>
     <use xlink:href="#ArialMT-7c" transform="translate(290.982422 0)"/>
     <use xlink:href="#ArialMT-20" transform="translate(316.958984 0)"/>
     <use xlink:href="#ArialMT-31" transform="translate(344.742188 0)"/>
     <use xlink:href="#ArialMT-2e" transform="translate(400.357422 0)"/>
     <use xlink:href="#ArialMT-36" transform="translate(428.140625 0)"/>
     <use xlink:href="#ArialMT-42" transform="translate(483.755859 0)"/>
    </g>
   </g>
   <g id="text_24">
    <!-- GenerRNA -->
    <g transform="translate(261.255039 252.338311) rotate(-45) scale(0.1 -0.1)">
     <use xlink:href="#ArialMT-47"/>
     <use xlink:href="#ArialMT-65" transform="translate(77.783203 0)"/>
     <use xlink:href="#ArialMT-6e" transform="translate(133.398438 0)"/>
     <use xlink:href="#ArialMT-65" transform="translate(189.013672 0)"/>
     <use xlink:href="#ArialMT-72" transform="translate(244.628906 0)"/>
     <use xlink:href="#ArialMT-52" transform="translate(277.929688 0)"/>
     <use xlink:href="#ArialMT-4e" transform="translate(350.146484 0)"/>
     <use xlink:href="#ArialMT-41" transform="translate(422.363281 0)"/>
    </g>
   </g>
   <g id="text_25">
    <!-- GPT | 350M -->
    <g style="fill: #ffa45b" transform="translate(269.535735 259.766119) rotate(-45) scale(0.09 -0.09)">
     <use xlink:href="#ArialMT-47"/>
     <use xlink:href="#ArialMT-50" transform="translate(77.783203 0)"/>
     <use xlink:href="#ArialMT-54" transform="translate(144.482422 0)"/>
     <use xlink:href="#ArialMT-20" transform="translate(203.816406 0)"/>
     <use xlink:href="#ArialMT-7c" transform="translate(231.599609 0)"/>
     <use xlink:href="#ArialMT-20" transform="translate(257.576172 0)"/>
     <use xlink:href="#ArialMT-33" transform="translate(285.359375 0)"/>
     <use xlink:href="#ArialMT-35" transform="translate(340.974609 0)"/>
     <use xlink:href="#ArialMT-30" transform="translate(396.589844 0)"/>
     <use xlink:href="#ArialMT-4d" transform="translate(452.205078 0)"/>
    </g>
   </g>
   <g id="text_26">
    <!-- codonGPT -->
    <g transform="translate(292.883837 251.557179) rotate(-45) scale(0.1 -0.1)">
     <defs>
      <path id="ArialMT-63" d="M 2588 1216 
L 3141 1144 
Q 3050 572 2676 248 
Q 2303 -75 1759 -75 
Q 1078 -75 664 370 
Q 250 816 250 1647 
Q 250 2184 428 2587 
Q 606 2991 970 3192 
Q 1334 3394 1763 3394 
Q 2303 3394 2647 3120 
Q 2991 2847 3088 2344 
L 2541 2259 
Q 2463 2594 2264 2762 
Q 2066 2931 1784 2931 
Q 1359 2931 1093 2626 
Q 828 2322 828 1663 
Q 828 994 1084 691 
Q 1341 388 1753 388 
Q 2084 388 2306 591 
Q 2528 794 2588 1216 
z
" transform="scale(0.015625)"/>
      <path id="ArialMT-6f" d="M 213 1659 
Q 213 2581 725 3025 
Q 1153 3394 1769 3394 
Q 2453 3394 2887 2945 
Q 3322 2497 3322 1706 
Q 3322 1066 3130 698 
Q 2938 331 2570 128 
Q 2203 -75 1769 -75 
Q 1072 -75 642 372 
Q 213 819 213 1659 
z
M 791 1659 
Q 791 1022 1069 705 
Q 1347 388 1769 388 
Q 2188 388 2466 706 
Q 2744 1025 2744 1678 
Q 2744 2294 2464 2611 
Q 2184 2928 1769 2928 
Q 1347 2928 1069 2612 
Q 791 2297 791 1659 
z
" transform="scale(0.015625)"/>
      <path id="ArialMT-64" d="M 2575 0 
L 2575 419 
Q 2259 -75 1647 -75 
Q 1250 -75 917 144 
Q 584 363 401 755 
Q 219 1147 219 1656 
Q 219 2153 384 2558 
Q 550 2963 881 3178 
Q 1213 3394 1622 3394 
Q 1922 3394 2156 3267 
Q 2391 3141 2538 2938 
L 2538 4581 
L 3097 4581 
L 3097 0 
L 2575 0 
z
M 797 1656 
Q 797 1019 1065 703 
Q 1334 388 1700 388 
Q 2069 388 2326 689 
Q 2584 991 2584 1609 
Q 2584 2291 2321 2609 
Q 2059 2928 1675 2928 
Q 1300 2928 1048 2622 
Q 797 2316 797 1656 
z
" transform="scale(0.015625)"/>
     </defs>
     <use xlink:href="#ArialMT-63"/>
     <use xlink:href="#ArialMT-6f" transform="translate(50 0)"/>
     <use xlink:href="#ArialMT-64" transform="translate(105.615234 0)"/>
     <use xlink:href="#ArialMT-6f" transform="translate(161.230469 0)"/>
     <use xlink:href="#ArialMT-6e" transform="translate(216.845703 0)"/>
     <use xlink:href="#ArialMT-47" transform="translate(272.460938 0)"/>
     <use xlink:href="#ArialMT-50" transform="translate(350.244141 0)"/>
     <use xlink:href="#ArialMT-54" transform="translate(416.943359 0)"/>
    </g>
   </g>
   <g id="text_27">
    <!-- GPT | 3.43M -->
    <g style="fill: #50b9ae" transform="translate(298.615413 261.534107) rotate(-45) scale(0.09 -0.09)">
     <use xlink:href="#ArialMT-47"/>
     <use xlink:href="#ArialMT-50" transform="translate(77.783203 0)"/>
     <use xlink:href="#ArialMT-54" transform="translate(144.482422 0)"/>
     <use xlink:href="#ArialMT-20" transform="translate(203.816406 0)"/>
     <use xlink:href="#ArialMT-7c" transform="translate(231.599609 0)"/>
     <use xlink:href="#ArialMT-20" transform="translate(257.576172 0)"/>
     <use xlink:href="#ArialMT-33" transform="translate(285.359375 0)"/>
     <use xlink:href="#ArialMT-2e" transform="translate(340.974609 0)"/>
     <use xlink:href="#ArialMT-34" transform="translate(368.757812 0)"/>
     <use xlink:href="#ArialMT-33" transform="translate(424.373047 0)"/>
     <use xlink:href="#ArialMT-4d" transform="translate(479.988281 0)"/>
    </g>
   </g>
   <g id="text_28">
    <!-- CodonFM 1B -->
    <g transform="translate(315.873779 259.414904) rotate(-45) scale(0.1 -0.1)">
     <defs>
      <path id="ArialMT-43" d="M 3763 1606 
L 4369 1453 
Q 4178 706 3683 314 
Q 3188 -78 2472 -78 
Q 1731 -78 1267 223 
Q 803 525 561 1097 
Q 319 1669 319 2325 
Q 319 3041 592 3573 
Q 866 4106 1370 4382 
Q 1875 4659 2481 4659 
Q 3169 4659 3637 4309 
Q 4106 3959 4291 3325 
L 3694 3184 
Q 3534 3684 3231 3912 
Q 2928 4141 2469 4141 
Q 1941 4141 1586 3887 
Q 1231 3634 1087 3207 
Q 944 2781 944 2328 
Q 944 1744 1114 1308 
Q 1284 872 1643 656 
Q 2003 441 2422 441 
Q 2931 441 3284 734 
Q 3638 1028 3763 1606 
z
" transform="scale(0.015625)"/>
     </defs>
     <use xlink:href="#ArialMT-43"/>
     <use xlink:href="#ArialMT-6f" transform="translate(72.216797 0)"/>
     <use xlink:href="#ArialMT-64" transform="translate(127.832031 0)"/>
     <use xlink:href="#ArialMT-6f" transform="translate(183.447266 0)"/>
     <use xlink:href="#ArialMT-6e" transform="translate(239.0625 0)"/>
     <use xlink:href="#ArialMT-46" transform="translate(294.677734 0)"/>
     <use xlink:href="#ArialMT-4d" transform="translate(355.761719 0)"/>
     <use xlink:href="#ArialMT-20" transform="translate(439.0625 0)"/>
     <use xlink:href="#ArialMT-31" transform="translate(466.845703 0)"/>
     <use xlink:href="#ArialMT-42" transform="translate(522.460938 0)"/>
    </g>
   </g>
   <g id="text_29">
    <!-- GPT | 1B -->
    <g style="fill: #50b9ae" transform="translate(339.365004 251.632182) rotate(-45) scale(0.09 -0.09)">
     <use xlink:href="#ArialMT-47"/>
     <use xlink:href="#ArialMT-50" transform="translate(77.783203 0)"/>
     <use xlink:href="#ArialMT-54" transform="translate(144.482422 0)"/>
     <use xlink:href="#ArialMT-20" transform="translate(203.816406 0)"/>
     <use xlink:href="#ArialMT-7c" transform="translate(231.599609 0)"/>
     <use xlink:href="#ArialMT-20" transform="translate(257.576172 0)"/>
     <use xlink:href="#ArialMT-31" transform="translate(285.359375 0)"/>
     <use xlink:href="#ArialMT-42" transform="translate(340.974609 0)"/>
    </g>
   </g>
   <g id="text_30">
    <!-- CodonFM 600M -->
    <g transform="translate(337.683736 268.452612) rotate(-45) scale(0.1 -0.1)">
     <use xlink:href="#ArialMT-43"/>
     <use xlink:href="#ArialMT-6f" transform="translate(72.216797 0)"/>
     <use xlink:href="#ArialMT-64" transform="translate(127.832031 0)"/>
     <use xlink:href="#ArialMT-6f" transform="translate(183.447266 0)"/>
     <use xlink:href="#ArialMT-6e" transform="translate(239.0625 0)"/>
     <use xlink:href="#ArialMT-46" transform="translate(294.677734 0)"/>
     <use xlink:href="#ArialMT-4d" transform="translate(355.761719 0)"/>
     <use xlink:href="#ArialMT-20" transform="translate(439.0625 0)"/>
     <use xlink:href="#ArialMT-36" transform="translate(466.845703 0)"/>
     <use xlink:href="#ArialMT-30" transform="translate(522.460938 0)"/>
     <use xlink:href="#ArialMT-30" transform="translate(578.076172 0)"/>
     <use xlink:href="#ArialMT-4d" transform="translate(633.691406 0)"/>
    </g>
   </g>
   <g id="text_31">
    <!-- GPT | 600M -->
    <g style="fill: #50b9ae" transform="translate(362.078732 259.766119) rotate(-45) scale(0.09 -0.09)">
     <use xlink:href="#ArialMT-47"/>
     <use xlink:href="#ArialMT-50" transform="translate(77.783203 0)"/>
     <use xlink:href="#ArialMT-54" transform="translate(144.482422 0)"/>
     <use xlink:href="#ArialMT-20" transform="translate(203.816406 0)"/>
     <use xlink:href="#ArialMT-7c" transform="translate(231.599609 0)"/>
     <use xlink:href="#ArialMT-20" transform="translate(257.576172 0)"/>
     <use xlink:href="#ArialMT-36" transform="translate(285.359375 0)"/>
     <use xlink:href="#ArialMT-30" transform="translate(340.974609 0)"/>
     <use xlink:href="#ArialMT-30" transform="translate(396.589844 0)"/>
     <use xlink:href="#ArialMT-4d" transform="translate(452.205078 0)"/>
    </g>
   </g>
   <g id="text_32">
    <!-- Evo2 7B -->
    <g transform="translate(392.496797 244.487216) rotate(-45) scale(0.1 -0.1)">
     <defs>
      <path id="ArialMT-76" d="M 1344 0 
L 81 3319 
L 675 3319 
L 1388 1331 
Q 1503 1009 1600 663 
Q 1675 925 1809 1294 
L 2547 3319 
L 3125 3319 
L 1869 0 
L 1344 0 
z
" transform="scale(0.015625)"/>
     </defs>
     <use xlink:href="#ArialMT-45"/>
     <use xlink:href="#ArialMT-76" transform="translate(66.699219 0)"/>
     <use xlink:href="#ArialMT-6f" transform="translate(116.699219 0)"/>
     <use xlink:href="#ArialMT-32" transform="translate(172.314453 0)"/>
     <use xlink:href="#ArialMT-20" transform="translate(227.929688 0)"/>
     <use xlink:href="#ArialMT-37" transform="translate(255.712891 0)"/>
     <use xlink:href="#ArialMT-42" transform="translate(311.328125 0)"/>
    </g>
   </g>
   <g id="text_33">
    <!-- Hyena | 7B -->
    <g style="fill: #73b9e7" transform="translate(395.636053 257.056464) rotate(-45) scale(0.09 -0.09)">
     <defs>
      <path id="ArialMT-48" d="M 513 0 
L 513 4581 
L 1119 4581 
L 1119 2700 
L 3500 2700 
L 3500 4581 
L 4106 4581 
L 4106 0 
L 3500 0 
L 3500 2159 
L 1119 2159 
L 1119 0 
L 513 0 
z
" transform="scale(0.015625)"/>
      <path id="ArialMT-79" d="M 397 -1278 
L 334 -750 
Q 519 -800 656 -800 
Q 844 -800 956 -737 
Q 1069 -675 1141 -563 
Q 1194 -478 1313 -144 
Q 1328 -97 1363 -6 
L 103 3319 
L 709 3319 
L 1400 1397 
Q 1534 1031 1641 628 
Q 1738 1016 1872 1384 
L 2581 3319 
L 3144 3319 
L 1881 -56 
Q 1678 -603 1566 -809 
Q 1416 -1088 1222 -1217 
Q 1028 -1347 759 -1347 
Q 597 -1347 397 -1278 
z
" transform="scale(0.015625)"/>
     </defs>
     <use xlink:href="#ArialMT-48"/>
     <use xlink:href="#ArialMT-79" transform="translate(72.216797 0)"/>
     <use xlink:href="#ArialMT-65" transform="translate(122.216797 0)"/>
     <use xlink:href="#ArialMT-6e" transform="translate(177.832031 0)"/>
     <use xlink:href="#ArialMT-61" transform="translate(233.447266 0)"/>
     <use xlink:href="#ArialMT-20" transform="translate(289.0625 0)"/>
     <use xlink:href="#ArialMT-7c" transform="translate(316.845703 0)"/>
     <use xlink:href="#ArialMT-20" transform="translate(342.822266 0)"/>
     <use xlink:href="#ArialMT-37" transform="translate(370.605469 0)"/>
     <use xlink:href="#ArialMT-42" transform="translate(426.220703 0)"/>
    </g>
   </g>
   <g id="text_34">
    <!-- Evo2 1B -->
    <g transform="translate(423.344463 244.487216) rotate(-45) scale(0.1 -0.1)">
     <use xlink:href="#ArialMT-45"/>
     <use xlink:href="#ArialMT-76" transform="translate(66.699219 0)"/>
     <use xlink:href="#ArialMT-6f" transform="translate(116.699219 0)"/>
     <use xlink:href="#ArialMT-32" transform="translate(172.314453 0)"/>
     <use xlink:href="#ArialMT-20" transform="translate(227.929688 0)"/>
     <use xlink:href="#ArialMT-31" transform="translate(255.712891 0)"/>
     <use xlink:href="#ArialMT-42" transform="translate(311.328125 0)"/>
    </g>
   </g>
   <g id="text_35">
    <!-- Hyena | 1B -->
    <g style="fill: #73b9e7" transform="translate(426.483719 257.056464) rotate(-45) scale(0.09 -0.09)">
     <use xlink:href="#ArialMT-48"/>
     <use xlink:href="#ArialMT-79" transform="translate(72.216797 0)"/>
     <use xlink:href="#ArialMT-65" transform="translate(122.216797 0)"/>
     <use xlink:href="#ArialMT-6e" transform="translate(177.832031 0)"/>
     <use xlink:href="#ArialMT-61" transform="translate(233.447266 0)"/>
     <use xlink:href="#ArialMT-20" transform="translate(289.0625 0)"/>
     <use xlink:href="#ArialMT-7c" transform="translate(316.845703 0)"/>
     <use xlink:href="#ArialMT-20" transform="translate(342.822266 0)"/>
     <use xlink:href="#ArialMT-31" transform="translate(370.605469 0)"/>
     <use xlink:href="#ArialMT-42" transform="translate(426.220703 0)"/>
    </g>
   </g>
   <g id="text_36">
    <!-- GENA -->
    <g transform="translate(460.882022 237.797323) rotate(-45) scale(0.1 -0.1)">
     <use xlink:href="#ArialMT-47"/>
     <use xlink:href="#ArialMT-45" transform="translate(77.783203 0)"/>
     <use xlink:href="#ArialMT-4e" transform="translate(144.482422 0)"/>
     <use xlink:href="#ArialMT-41" transform="translate(216.699219 0)"/>
    </g>
   </g>
   <g id="text_37">
    <!-- BERT | 110M -->
    <g style="fill: #73b9e7" transform="translate(451.311476 263.076373) rotate(-45) scale(0.09 -0.09)">
     <use xlink:href="#ArialMT-42"/>
     <use xlink:href="#ArialMT-45" transform="translate(66.699219 0)"/>
     <use xlink:href="#ArialMT-52" transform="translate(133.398438 0)"/>
     <use xlink:href="#ArialMT-54" transform="translate(203.865234 0)"/>
     <use xlink:href="#ArialMT-20" transform="translate(263.199219 0)"/>
     <use xlink:href="#ArialMT-7c" transform="translate(290.982422 0)"/>
     <use xlink:href="#ArialMT-20" transform="translate(316.958984 0)"/>
     <use xlink:href="#ArialMT-31" transform="translate(344.742188 0)"/>
     <use xlink:href="#ArialMT-31" transform="translate(392.982422 0)"/>
     <use xlink:href="#ArialMT-30" transform="translate(448.597656 0)"/>
     <use xlink:href="#ArialMT-4d" transform="translate(504.212891 0)"/>
    </g>
   </g>
   <g id="text_38">
    <!-- Evo2 40B -->
    <g transform="translate(481.107618 248.419393) rotate(-45) scale(0.1 -0.1)">
     <use xlink:href="#ArialMT-45"/>
     <use xlink:href="#ArialMT-76" transform="translate(66.699219 0)"/>
     <use xlink:href="#ArialMT-6f" transform="translate(116.699219 0)"/>
     <use xlink:href="#ArialMT-32" transform="translate(172.314453 0)"/>
     <use xlink:href="#ArialMT-20" transform="translate(227.929688 0)"/>
     <use xlink:href="#ArialMT-34" transform="translate(255.712891 0)"/>
     <use xlink:href="#ArialMT-30" transform="translate(311.328125 0)"/>
     <use xlink:href="#ArialMT-42" transform="translate(366.943359 0)"/>
    </g>
   </g>
   <g id="text_39">
    <!-- Hyena | 40B -->
    <g style="fill: #73b9e7" transform="translate(484.640092 260.595423) rotate(-45) scale(0.09 -0.09)">
     <use xlink:href="#ArialMT-48"/>
     <use xlink:href="#ArialMT-79" transform="translate(72.216797 0)"/>
     <use xlink:href="#ArialMT-65" transform="translate(122.216797 0)"/>
     <use xlink:href="#ArialMT-6e" transform="translate(177.832031 0)"/>
     <use xlink:href="#ArialMT-61" transform="translate(233.447266 0)"/>
     <use xlink:href="#ArialMT-20" transform="translate(289.0625 0)"/>
     <use xlink:href="#ArialMT-7c" transform="translate(316.845703 0)"/>
     <use xlink:href="#ArialMT-20" transform="translate(342.822266 0)"/>
     <use xlink:href="#ArialMT-34" transform="translate(370.605469 0)"/>
     <use xlink:href="#ArialMT-30" transform="translate(426.220703 0)"/>
     <use xlink:href="#ArialMT-42" transform="translate(481.835938 0)"/>
    </g>
   </g>
   <g id="text_40">
    <!-- Better -->
    <g transform="translate(564.463625 206.411812) rotate(-90) scale(0.12 -0.12)">
     <defs>
      <path id="ArialMT-74" d="M 1650 503 
L 1731 6 
Q 1494 -44 1306 -44 
Q 1000 -44 831 53 
Q 663 150 594 308 
Q 525 466 525 972 
L 525 2881 
L 113 2881 
L 113 3319 
L 525 3319 
L 525 4141 
L 1084 4478 
L 1084 3319 
L 1650 3319 
L 1650 2881 
L 1084 2881 
L 1084 941 
Q 1084 700 1114 631 
Q 1144 563 1211 522 
Q 1278 481 1403 481 
Q 1497 481 1650 503 
z
" transform="scale(0.015625)"/>
     </defs>
     <use xlink:href="#ArialMT-42"/>
     <use xlink:href="#ArialMT-65" transform="translate(66.699219 0)"/>
     <use xlink:href="#ArialMT-74" transform="translate(122.314453 0)"/>
     <use xlink:href="#ArialMT-74" transform="translate(150.097656 0)"/>
     <use xlink:href="#ArialMT-65" transform="translate(177.880859 0)"/>
     <use xlink:href="#ArialMT-72" transform="translate(233.496094 0)"/>
    </g>
   </g>
   <g id="patch_22">
    <path d="M 563.40725 169.828934 
Q 563.40725 97.524902 563.40725 26.897921 
" style="fill: none; stroke: #000000; stroke-width: 1.5; stroke-linecap: round"/>
    <path d="M 561.40725 30.897921 
L 563.40725 26.897921 
L 565.40725 30.897921 
" style="fill: none; stroke: #000000; stroke-width: 1.5; stroke-linecap: round"/>
   </g>
   <g id="text_41">
    <!-- Zero-shot ncRNA Fitness Prediction -->
    <g transform="translate(185.980625 17.220937) scale(0.14 -0.14)">
     <defs>
      <path id="ArialMT-5a" d="M 128 0 
L 128 563 
L 2475 3497 
Q 2725 3809 2950 4041 
L 394 4041 
L 394 4581 
L 3675 4581 
L 3675 4041 
L 1103 863 
L 825 541 
L 3750 541 
L 3750 0 
L 128 0 
z
" transform="scale(0.015625)"/>
      <path id="ArialMT-73" d="M 197 991 
L 753 1078 
Q 800 744 1014 566 
Q 1228 388 1613 388 
Q 2000 388 2187 545 
Q 2375 703 2375 916 
Q 2375 1106 2209 1216 
Q 2094 1291 1634 1406 
Q 1016 1563 777 1677 
Q 538 1791 414 1992 
Q 291 2194 291 2438 
Q 291 2659 392 2848 
Q 494 3038 669 3163 
Q 800 3259 1026 3326 
Q 1253 3394 1513 3394 
Q 1903 3394 2198 3281 
Q 2494 3169 2634 2976 
Q 2775 2784 2828 2463 
L 2278 2388 
Q 2241 2644 2061 2787 
Q 1881 2931 1553 2931 
Q 1166 2931 1000 2803 
Q 834 2675 834 2503 
Q 834 2394 903 2306 
Q 972 2216 1119 2156 
Q 1203 2125 1616 2013 
Q 2213 1853 2448 1751 
Q 2684 1650 2818 1456 
Q 2953 1263 2953 975 
Q 2953 694 2789 445 
Q 2625 197 2315 61 
Q 2006 -75 1616 -75 
Q 969 -75 630 194 
Q 291 463 197 991 
z
" transform="scale(0.015625)"/>
      <path id="ArialMT-68" d="M 422 0 
L 422 4581 
L 984 4581 
L 984 2938 
Q 1378 3394 1978 3394 
Q 2347 3394 2619 3248 
Q 2891 3103 3008 2847 
Q 3125 2591 3125 2103 
L 3125 0 
L 2563 0 
L 2563 2103 
Q 2563 2525 2380 2717 
Q 2197 2909 1863 2909 
Q 1613 2909 1392 2779 
Q 1172 2650 1078 2428 
Q 984 2206 984 1816 
L 984 0 
L 422 0 
z
" transform="scale(0.015625)"/>
      <path id="ArialMT-69" d="M 425 3934 
L 425 4581 
L 988 4581 
L 988 3934 
L 425 3934 
z
M 425 0 
L 425 3319 
L 988 3319 
L 988 0 
L 425 0 
z
" transform="scale(0.015625)"/>
     </defs>
     <use xlink:href="#ArialMT-5a"/>
     <use xlink:href="#ArialMT-65" transform="translate(61.083984 0)"/>
     <use xlink:href="#ArialMT-72" transform="translate(116.699219 0)"/>
     <use xlink:href="#ArialMT-6f" transform="translate(150 0)"/>
     <use xlink:href="#ArialMT-2d" transform="translate(205.615234 0)"/>
     <use xlink:href="#ArialMT-73" transform="translate(238.916016 0)"/>
     <use xlink:href="#ArialMT-68" transform="translate(288.916016 0)"/>
     <use xlink:href="#ArialMT-6f" transform="translate(344.53125 0)"/>
     <use xlink:href="#ArialMT-74" transform="translate(400.146484 0)"/>
     <use xlink:href="#ArialMT-20" transform="translate(427.929688 0)"/>
     <use xlink:href="#ArialMT-6e" transform="translate(455.712891 0)"/>
     <use xlink:href="#ArialMT-63" transform="translate(511.328125 0)"/>
     <use xlink:href="#ArialMT-52" transform="translate(561.328125 0)"/>
     <use xlink:href="#ArialMT-4e" transform="translate(633.544922 0)"/>
     <use xlink:href="#ArialMT-41" transform="translate(705.761719 0)"/>
     <use xlink:href="#ArialMT-20" transform="translate(766.960938 0)"/>
     <use xlink:href="#ArialMT-46" transform="translate(794.744141 0)"/>
     <use xlink:href="#ArialMT-69" transform="translate(855.828125 0)"/>
     <use xlink:href="#ArialMT-74" transform="translate(878.044922 0)"/>
     <use xlink:href="#ArialMT-6e" transform="translate(905.828125 0)"/>
     <use xlink:href="#ArialMT-65" transform="translate(961.443359 0)"/>
     <use xlink:href="#ArialMT-73" transform="translate(1017.058594 0)"/>
     <use xlink:href="#ArialMT-73" transform="translate(1067.058594 0)"/>
     <use xlink:href="#ArialMT-20" transform="translate(1117.058594 0)"/>
     <use xlink:href="#ArialMT-50" transform="translate(1144.841797 0)"/>
     <use xlink:href="#ArialMT-72" transform="translate(1211.541016 0)"/>
     <use xlink:href="#ArialMT-65" transform="translate(1244.841797 0)"/>
     <use xlink:href="#ArialMT-64" transform="translate(1300.457031 0)"/>
     <use xlink:href="#ArialMT-69" transform="translate(1356.072266 0)"/>
     <use xlink:href="#ArialMT-63" transform="translate(1378.289062 0)"/>
     <use xlink:href="#ArialMT-74" transform="translate(1428.289062 0)"/>
     <use xlink:href="#ArialMT-69" transform="translate(1456.072266 0)"/>
     <use xlink:href="#ArialMT-6f" transform="translate(1478.289062 0)"/>
     <use xlink:href="#ArialMT-6e" transform="translate(1533.904297 0)"/>
    </g>
   </g>
   <g id="legend_1">
    <g id="patch_23">
     <path d="M 84.027188 277.273425 
L 104.027188 277.273425 
L 104.027188 270.273425 
L 84.027188 270.273425 
z
" style="fill: #ffa45b"/>
    </g>
    <g id="text_42">
     <!-- RNA Language Model -->
     <g transform="translate(112.027188 277.273425) scale(0.1 -0.1)">
      <defs>
       <path id="ArialMT-4c" d="M 469 0 
L 469 4581 
L 1075 4581 
L 1075 541 
L 3331 541 
L 3331 0 
L 469 0 
z
" transform="scale(0.015625)"/>
       <path id="ArialMT-67" d="M 319 -275 
L 866 -356 
Q 900 -609 1056 -725 
Q 1266 -881 1628 -881 
Q 2019 -881 2231 -725 
Q 2444 -569 2519 -288 
Q 2563 -116 2559 434 
Q 2191 0 1641 0 
Q 956 0 581 494 
Q 206 988 206 1678 
Q 206 2153 378 2554 
Q 550 2956 876 3175 
Q 1203 3394 1644 3394 
Q 2231 3394 2613 2919 
L 2613 3319 
L 3131 3319 
L 3131 450 
Q 3131 -325 2973 -648 
Q 2816 -972 2473 -1159 
Q 2131 -1347 1631 -1347 
Q 1038 -1347 672 -1080 
Q 306 -813 319 -275 
z
M 784 1719 
Q 784 1066 1043 766 
Q 1303 466 1694 466 
Q 2081 466 2343 764 
Q 2606 1063 2606 1700 
Q 2606 2309 2336 2618 
Q 2066 2928 1684 2928 
Q 1309 2928 1046 2623 
Q 784 2319 784 1719 
z
" transform="scale(0.015625)"/>
       <path id="ArialMT-75" d="M 2597 0 
L 2597 488 
Q 2209 -75 1544 -75 
Q 1250 -75 995 37 
Q 741 150 617 320 
Q 494 491 444 738 
Q 409 903 409 1263 
L 409 3319 
L 972 3319 
L 972 1478 
Q 972 1038 1006 884 
Q 1059 663 1231 536 
Q 1403 409 1656 409 
Q 1909 409 2131 539 
Q 2353 669 2445 892 
Q 2538 1116 2538 1541 
L 2538 3319 
L 3100 3319 
L 3100 0 
L 2597 0 
z
" transform="scale(0.015625)"/>
       <path id="ArialMT-6c" d="M 409 0 
L 409 4581 
L 972 4581 
L 972 0 
L 409 0 
z
" transform="scale(0.015625)"/>
      </defs>
      <use xlink:href="#ArialMT-52"/>
      <use xlink:href="#ArialMT-4e" transform="translate(72.216797 0)"/>
      <use xlink:href="#ArialMT-41" transform="translate(144.433594 0)"/>
      <use xlink:href="#ArialMT-20" transform="translate(205.632812 0)"/>
      <use xlink:href="#ArialMT-4c" transform="translate(233.416016 0)"/>
      <use xlink:href="#ArialMT-61" transform="translate(289.03125 0)"/>
      <use xlink:href="#ArialMT-6e" transform="translate(344.646484 0)"/>
      <use xlink:href="#ArialMT-67" transform="translate(400.261719 0)"/>
      <use xlink:href="#ArialMT-75" transform="translate(455.876953 0)"/>
      <use xlink:href="#ArialMT-61" transform="translate(511.492188 0)"/>
      <use xlink:href="#ArialMT-67" transform="translate(567.107422 0)"/>
      <use xlink:href="#ArialMT-65" transform="translate(622.722656 0)"/>
      <use xlink:href="#ArialMT-20" transform="translate(678.337891 0)"/>
      <use xlink:href="#ArialMT-4d" transform="translate(706.121094 0)"/>
      <use xlink:href="#ArialMT-6f" transform="translate(789.421875 0)"/>
      <use xlink:href="#ArialMT-64" transform="translate(845.037109 0)"/>
      <use xlink:href="#ArialMT-65" transform="translate(900.652344 0)"/>
      <use xlink:href="#ArialMT-6c" transform="translate(956.267578 0)"/>
     </g>
    </g>
    <g id="patch_24">
     <path d="M 229.869375 277.273425 
L 249.869375 277.273425 
L 249.869375 270.273425 
L 229.869375 270.273425 
z
" style="fill: #50b9ae"/>
    </g>
    <g id="text_43">
     <!-- Codon Language Model -->
     <g transform="translate(257.869375 277.273425) scale(0.1 -0.1)">
      <use xlink:href="#ArialMT-43"/>
      <use xlink:href="#ArialMT-6f" transform="translate(72.216797 0)"/>
      <use xlink:href="#ArialMT-64" transform="translate(127.832031 0)"/>
      <use xlink:href="#ArialMT-6f" transform="translate(183.447266 0)"/>
      <use xlink:href="#ArialMT-6e" transform="translate(239.0625 0)"/>
      <use xlink:href="#ArialMT-20" transform="translate(294.677734 0)"/>
      <use xlink:href="#ArialMT-4c" transform="translate(322.460938 0)"/>
      <use xlink:href="#ArialMT-61" transform="translate(378.076172 0)"/>
      <use xlink:href="#ArialMT-6e" transform="translate(433.691406 0)"/>
      <use xlink:href="#ArialMT-67" transform="translate(489.306641 0)"/>
      <use xlink:href="#ArialMT-75" transform="translate(544.921875 0)"/>
      <use xlink:href="#ArialMT-61" transform="translate(600.537109 0)"/>
      <use xlink:href="#ArialMT-67" transform="translate(656.152344 0)"/>
      <use xlink:href="#ArialMT-65" transform="translate(711.767578 0)"/>
      <use xlink:href="#ArialMT-20" transform="translate(767.382812 0)"/>
      <use xlink:href="#ArialMT-4d" transform="translate(795.166016 0)"/>
      <use xlink:href="#ArialMT-6f" transform="translate(878.466797 0)"/>
      <use xlink:href="#ArialMT-64" transform="translate(934.082031 0)"/>
      <use xlink:href="#ArialMT-65" transform="translate(989.697266 0)"/>
      <use xlink:href="#ArialMT-6c" transform="translate(1045.3125 0)"/>
     </g>
    </g>
    <g id="patch_25">
     <path d="M 384.613125 277.273425 
L 404.613125 277.273425 
L 404.613125 270.273425 
L 384.613125 270.273425 
z
" style="fill: #73b9e7"/>
    </g>
    <g id="text_44">
     <!-- DNA Language Model -->
     <g transform="translate(412.613125 277.273425) scale(0.1 -0.1)">
      <use xlink:href="#ArialMT-44"/>
      <use xlink:href="#ArialMT-4e" transform="translate(72.216797 0)"/>
      <use xlink:href="#ArialMT-41" transform="translate(144.433594 0)"/>
      <use xlink:href="#ArialMT-20" transform="translate(205.632812 0)"/>
      <use xlink:href="#ArialMT-4c" transform="translate(233.416016 0)"/>
      <use xlink:href="#ArialMT-61" transform="translate(289.03125 0)"/>
      <use xlink:href="#ArialMT-6e" transform="translate(344.646484 0)"/>
      <use xlink:href="#ArialMT-67" transform="translate(400.261719 0)"/>
      <use xlink:href="#ArialMT-75" transform="translate(455.876953 0)"/>
      <use xlink:href="#ArialMT-61" transform="translate(511.492188 0)"/>
      <use xlink:href="#ArialMT-67" transform="translate(567.107422 0)"/>
      <use xlink:href="#ArialMT-65" transform="translate(622.722656 0)"/>
      <use xlink:href="#ArialMT-20" transform="translate(678.337891 0)"/>
      <use xlink:href="#ArialMT-4d" transform="translate(706.121094 0)"/>
      <use xlink:href="#ArialMT-6f" transform="translate(789.421875 0)"/>
      <use xlink:href="#ArialMT-64" transform="translate(845.037109 0)"/>
      <use xlink:href="#ArialMT-65" transform="translate(900.652344 0)"/>
      <use xlink:href="#ArialMT-6c" transform="translate(956.267578 0)"/>
     </g>
    </g>
   </g>
  </g>
 </g>
 <defs>
  <clipPath id="p464e3d4b18">
   <rect x="46.14125" y="23.220937" width="502.2" height="185.76"/>
  </clipPath>
 </defs>
</svg>
